<svg width="404" height="116" viewBox="0 0 404 116" fill="none" xmlns="http://www.w3.org/2000/svg">
<g filter="url(#filter0_d_2_7)">
<path d="M30 76V46H36V40H42V34H60V40H66V46H72V76H60V64H42V76H30ZM42 58H60V46H54V40H48V46H42V58ZM89.04 76V34H125.04V40H131.04V58H119.04V64H125.04V70H131.04V76H113.04V70H107.04V64H101.04V76H89.04ZM101.04 58H113.04V52H119.04V40H101.04V58ZM160.08 76V70H154.08V64H148.08V46H154.08V40H160.08V34H184.08V40H190.08V46H178.08V40H166.08V46H160.08V64H166.08V70H178.08V64H190.08V70H184.08V76H160.08ZM207.12 76V46H213.12V40H219.12V34H237.12V40H243.12V46H249.12V76H237.12V64H219.12V76H207.12ZM219.12 58H237.12V46H231.12V40H225.12V46H219.12V58ZM266.16 76V34H296.16V40H302.16V46H308.16V64H302.16V70H296.16V76H266.16ZM278.16 70H290.16V64H296.16V46H290.16V40H278.16V70ZM325.2 76V34H367.2V40H337.2V52H361.2V58H337.2V70H367.2V76H325.2Z" fill="white"/>
<path d="M30 76H28V78H30V76ZM30 46V44H28V46H30ZM36 46V48H38V46H36ZM36 40V38H34V40H36ZM42 40V42H44V40H42ZM42 34V32H40V34H42ZM60 34H62V32H60V34ZM60 40H58V42H60V40ZM66 40H68V38H66V40ZM66 46H64V48H66V46ZM72 46H74V44H72V46ZM72 76V78H74V76H72ZM60 76H58V78H60V76ZM60 64H62V62H60V64ZM42 64V62H40V64H42ZM42 76V78H44V76H42ZM42 58H40V60H42V58ZM60 58V60H62V58H60ZM60 46H62V44H60V46ZM54 46H52V48H54V46ZM54 40H56V38H54V40ZM48 40V38H46V40H48ZM48 46V48H50V46H48ZM42 46V44H40V46H42ZM32 76V46H28V76H32ZM30 48H36V44H30V48ZM38 46V40H34V46H38ZM36 42H42V38H36V42ZM44 40V34H40V40H44ZM42 36H60V32H42V36ZM58 34V40H62V34H58ZM60 42H66V38H60V42ZM64 40V46H68V40H64ZM66 48H72V44H66V48ZM70 46V76H74V46H70ZM72 74H60V78H72V74ZM62 76V64H58V76H62ZM60 62H42V66H60V62ZM40 64V76H44V64H40ZM42 74H30V78H42V74ZM42 60H60V56H42V60ZM62 58V46H58V58H62ZM60 44H54V48H60V44ZM56 46V40H52V46H56ZM54 38H48V42H54V38ZM46 40V46H50V40H46ZM48 44H42V48H48V44ZM40 46V58H44V46H40ZM89.04 76H87.04V78H89.04V76ZM89.04 34V32H87.04V34H89.04ZM125.04 34H127.04V32H125.04V34ZM125.04 40H123.04V42H125.04V40ZM131.04 40H133.04V38H131.04V40ZM131.04 58V60H133.04V58H131.04ZM119.04 58V56H117.04V58H119.04ZM119.04 64H117.04V66H119.04V64ZM125.04 64H127.04V62H125.04V64ZM125.04 70H123.04V72H125.04V70ZM131.04 70H133.04V68H131.04V70ZM131.04 76V78H133.04V76H131.04ZM113.04 76H111.04V78H113.04V76ZM113.04 70H115.04V68H113.04V70ZM107.04 70H105.04V72H107.04V70ZM107.04 64H109.04V62H107.04V64ZM101.04 64V62H99.04V64H101.04ZM101.04 76V78H103.04V76H101.04ZM101.04 58H99.04V60H101.04V58ZM113.04 58V60H115.04V58H113.04ZM113.04 52V50H111.04V52H113.04ZM119.04 52V54H121.04V52H119.04ZM119.04 40H121.04V38H119.04V40ZM101.04 40V38H99.04V40H101.04ZM91.04 76V34H87.04V76H91.04ZM89.04 36H125.04V32H89.04V36ZM123.04 34V40H127.04V34H123.04ZM125.04 42H131.04V38H125.04V42ZM129.04 40V58H133.04V40H129.04ZM131.04 56H119.04V60H131.04V56ZM117.04 58V64H121.04V58H117.04ZM119.04 66H125.04V62H119.04V66ZM123.04 64V70H127.04V64H123.04ZM125.04 72H131.04V68H125.04V72ZM129.04 70V76H133.04V70H129.04ZM131.04 74H113.04V78H131.04V74ZM115.04 76V70H111.04V76H115.04ZM113.04 68H107.04V72H113.04V68ZM109.04 70V64H105.04V70H109.04ZM107.04 62H101.04V66H107.04V62ZM99.04 64V76H103.04V64H99.04ZM101.04 74H89.04V78H101.04V74ZM101.04 60H113.04V56H101.04V60ZM115.04 58V52H111.04V58H115.04ZM113.04 54H119.04V50H113.04V54ZM121.04 52V40H117.04V52H121.04ZM119.04 38H101.04V42H119.04V38ZM99.04 40V58H103.04V40H99.04ZM160.08 76H158.08V78H160.08V76ZM160.08 70H162.08V68H160.08V70ZM154.08 70H152.08V72H154.08V70ZM154.08 64H156.08V62H154.08V64ZM148.08 64H146.08V66H148.08V64ZM148.08 46V44H146.08V46H148.08ZM154.08 46V48H156.08V46H154.08ZM154.08 40V38H152.08V40H154.08ZM160.08 40V42H162.08V40H160.08ZM160.08 34V32H158.08V34H160.08ZM184.08 34H186.08V32H184.08V34ZM184.08 40H182.08V42H184.08V40ZM190.08 40H192.08V38H190.08V40ZM190.08 46V48H192.08V46H190.08ZM178.08 46H176.08V48H178.08V46ZM178.08 40H180.08V38H178.08V40ZM166.08 40V38H164.08V40H166.08ZM166.08 46V48H168.08V46H166.08ZM160.08 46V44H158.08V46H160.08ZM160.08 64H158.08V66H160.08V64ZM166.08 64H168.08V62H166.08V64ZM166.08 70H164.08V72H166.08V70ZM178.08 70V72H180.08V70H178.08ZM178.08 64V62H176.08V64H178.08ZM190.08 64H192.08V62H190.08V64ZM190.08 70V72H192.08V70H190.08ZM184.08 70V68H182.08V70H184.08ZM184.08 76V78H186.08V76H184.08ZM162.08 76V70H158.08V76H162.08ZM160.08 68H154.08V72H160.08V68ZM156.08 70V64H152.08V70H156.08ZM154.08 62H148.08V66H154.08V62ZM150.08 64V46H146.08V64H150.08ZM148.08 48H154.08V44H148.08V48ZM156.08 46V40H152.08V46H156.08ZM154.08 42H160.08V38H154.08V42ZM162.08 40V34H158.08V40H162.08ZM160.08 36H184.08V32H160.08V36ZM182.08 34V40H186.08V34H182.08ZM184.08 42H190.08V38H184.08V42ZM188.08 40V46H192.08V40H188.08ZM190.08 44H178.08V48H190.08V44ZM180.08 46V40H176.08V46H180.08ZM178.08 38H166.08V42H178.08V38ZM164.08 40V46H168.08V40H164.08ZM166.08 44H160.08V48H166.08V44ZM158.08 46V64H162.08V46H158.08ZM160.08 66H166.08V62H160.08V66ZM164.08 64V70H168.08V64H164.08ZM166.08 72H178.08V68H166.08V72ZM180.08 70V64H176.08V70H180.08ZM178.08 66H190.08V62H178.08V66ZM188.08 64V70H192.08V64H188.08ZM190.08 68H184.08V72H190.08V68ZM182.08 70V76H186.08V70H182.08ZM184.08 74H160.08V78H184.08V74ZM207.12 76H205.12V78H207.12V76ZM207.12 46V44H205.12V46H207.12ZM213.12 46V48H215.12V46H213.12ZM213.12 40V38H211.12V40H213.12ZM219.12 40V42H221.12V40H219.12ZM219.12 34V32H217.12V34H219.12ZM237.12 34H239.12V32H237.12V34ZM237.12 40H235.12V42H237.12V40ZM243.12 40H245.12V38H243.12V40ZM243.12 46H241.12V48H243.12V46ZM249.12 46H251.12V44H249.12V46ZM249.12 76V78H251.12V76H249.12ZM237.12 76H235.12V78H237.12V76ZM237.12 64H239.12V62H237.12V64ZM219.12 64V62H217.12V64H219.12ZM219.12 76V78H221.12V76H219.12ZM219.12 58H217.12V60H219.12V58ZM237.12 58V60H239.12V58H237.12ZM237.12 46H239.12V44H237.12V46ZM231.12 46H229.12V48H231.12V46ZM231.12 40H233.12V38H231.12V40ZM225.12 40V38H223.12V40H225.12ZM225.12 46V48H227.12V46H225.12ZM219.12 46V44H217.12V46H219.12ZM209.12 76V46H205.12V76H209.12ZM207.12 48H213.12V44H207.12V48ZM215.12 46V40H211.12V46H215.12ZM213.12 42H219.12V38H213.12V42ZM221.12 40V34H217.12V40H221.12ZM219.12 36H237.12V32H219.12V36ZM235.12 34V40H239.12V34H235.12ZM237.12 42H243.12V38H237.12V42ZM241.12 40V46H245.12V40H241.12ZM243.12 48H249.12V44H243.12V48ZM247.12 46V76H251.12V46H247.12ZM249.12 74H237.12V78H249.12V74ZM239.12 76V64H235.12V76H239.12ZM237.12 62H219.12V66H237.12V62ZM217.12 64V76H221.12V64H217.12ZM219.12 74H207.12V78H219.12V74ZM219.12 60H237.12V56H219.12V60ZM239.12 58V46H235.12V58H239.12ZM237.12 44H231.12V48H237.12V44ZM233.12 46V40H229.12V46H233.12ZM231.12 38H225.12V42H231.12V38ZM223.12 40V46H227.12V40H223.12ZM225.12 44H219.12V48H225.12V44ZM217.12 46V58H221.12V46H217.12ZM266.16 76H264.16V78H266.16V76ZM266.16 34V32H264.16V34H266.16ZM296.16 34H298.16V32H296.16V34ZM296.16 40H294.16V42H296.16V40ZM302.16 40H304.16V38H302.16V40ZM302.16 46H300.16V48H302.16V46ZM308.16 46H310.16V44H308.16V46ZM308.16 64V66H310.16V64H308.16ZM302.16 64V62H300.16V64H302.16ZM302.16 70V72H304.16V70H302.16ZM296.16 70V68H294.16V70H296.16ZM296.16 76V78H298.16V76H296.16ZM278.16 70H276.16V72H278.16V70ZM290.16 70V72H292.16V70H290.16ZM290.16 64V62H288.16V64H290.16ZM296.16 64V66H298.16V64H296.16ZM296.16 46H298.16V44H296.16V46ZM290.16 46H288.16V48H290.16V46ZM290.16 40H292.16V38H290.16V40ZM278.16 40V38H276.16V40H278.16ZM268.16 76V34H264.16V76H268.16ZM266.16 36H296.16V32H266.16V36ZM294.16 34V40H298.16V34H294.16ZM296.16 42H302.16V38H296.16V42ZM300.16 40V46H304.16V40H300.16ZM302.16 48H308.16V44H302.16V48ZM306.16 46V64H310.16V46H306.16ZM308.16 62H302.16V66H308.16V62ZM300.16 64V70H304.16V64H300.16ZM302.16 68H296.16V72H302.16V68ZM294.16 70V76H298.16V70H294.16ZM296.16 74H266.16V78H296.16V74ZM278.16 72H290.16V68H278.16V72ZM292.16 70V64H288.16V70H292.16ZM290.16 66H296.16V62H290.16V66ZM298.16 64V46H294.16V64H298.16ZM296.16 44H290.16V48H296.16V44ZM292.16 46V40H288.16V46H292.16ZM290.16 38H278.16V42H290.16V38ZM276.16 40V70H280.16V40H276.16ZM325.2 76H323.2V78H325.2V76ZM325.2 34V32H323.2V34H325.2ZM367.2 34H369.2V32H367.2V34ZM367.2 40V42H369.2V40H367.2ZM337.2 40V38H335.2V40H337.2ZM337.2 52H335.2V54H337.2V52ZM361.2 52H363.2V50H361.2V52ZM361.2 58V60H363.2V58H361.2ZM337.2 58V56H335.2V58H337.2ZM337.2 70H335.2V72H337.2V70ZM367.2 70H369.2V68H367.2V70ZM367.2 76V78H369.2V76H367.2ZM327.2 76V34H323.2V76H327.2ZM325.2 36H367.2V32H325.2V36ZM365.2 34V40H369.2V34H365.2ZM367.2 38H337.2V42H367.2V38ZM335.2 40V52H339.2V40H335.2ZM337.2 54H361.2V50H337.2V54ZM359.2 52V58H363.2V52H359.2ZM361.2 56H337.2V60H361.2V56ZM335.2 58V70H339.2V58H335.2ZM337.2 72H367.2V68H337.2V72ZM365.2 70V76H369.2V70H365.2ZM367.2 74H325.2V78H367.2V74Z" fill="black"/>
</g>
<defs>
<filter id="filter0_d_2_7" x="26" y="34" width="341.2" height="46" filterUnits="userSpaceOnUse" color-interpolation-filters="sRGB">
<feFlood flood-opacity="0" result="BackgroundImageFix"/>
<feColorMatrix in="SourceAlpha" type="matrix" values="0 0 0 0 0 0 0 0 0 0 0 0 0 0 0 0 0 0 127 0" result="hardAlpha"/>
<feOffset dx="-4" dy="4"/>
<feComposite in2="hardAlpha" operator="out"/>
<feColorMatrix type="matrix" values="0 0 0 0 0.74 0 0 0 0 1 0 0 0 0 0 0 0 0 1 0"/>
<feBlend mode="normal" in2="BackgroundImageFix" result="effect1_dropShadow_2_7"/>
<feBlend mode="normal" in="SourceGraphic" in2="effect1_dropShadow_2_7" result="shape"/>
</filter>
</defs>
</svg>
