<svg width="201" height="50" viewBox="0 0 201 50"  xmlns="http://www.w3.org/2000/svg">
<path d="M0.47998 0.383972H22.048C26.9973 0.383972 30.7306 1.59997 33.248 4.03197C35.68 6.25064 36.896 9.15197 36.896 12.736C36.896 17.6426 34.2933 20.8853 29.088 22.464V22.656C32.0746 23.3813 34.4426 24.7253 36.192 26.688C37.9413 28.6506 38.816 31.1466 38.816 34.176C38.816 36.3093 38.4533 38.208 37.728 39.872C37.0026 41.4933 35.9573 42.88 34.592 44.032C33.2267 45.312 31.5413 46.2933 29.536 46.976C27.5733 47.6586 25.312 48 22.752 48H0.47998V0.383972ZM20.768 20.032C23.072 20.032 24.8853 19.4986 26.208 18.432C27.5733 17.3226 28.256 15.744 28.256 13.696C28.256 11.7333 27.616 10.2186 26.336 9.15197C25.0986 8.04264 23.392 7.48797 21.216 7.48797H9.24798V20.032H20.768ZM21.984 40.768C23.3493 40.768 24.5226 40.5973 25.504 40.256C26.528 39.872 27.36 39.36 28 38.72C29.28 37.5253 29.92 35.904 29.92 33.856C29.92 31.424 29.152 29.6106 27.616 28.416C26.08 27.2213 24.1173 26.624 21.728 26.624H9.24798V40.768H21.984Z"/>
<path d="M67.0435 48C66.7448 47.616 66.4888 47.0826 66.2755 46.4C66.1048 45.6746 65.9768 44.736 65.8915 43.584H65.7635C64.6541 45.0773 63.2675 46.336 61.6035 47.36C59.9395 48.3413 57.7421 48.832 55.0115 48.832C53.3475 48.832 51.7901 48.6186 50.3395 48.192C48.9315 47.7653 47.7155 47.1253 46.6915 46.272C45.6675 45.4186 44.8568 44.3733 44.2595 43.136C43.6621 41.856 43.3635 40.384 43.3635 38.72C43.3635 36.8 43.7048 35.2213 44.3875 33.984C45.1128 32.704 46.0941 31.68 47.3315 30.912C48.5688 30.144 50.0408 29.568 51.7475 29.184C53.4541 28.7573 55.3315 28.416 57.3795 28.16C60.1955 27.8186 62.3075 27.3493 63.7155 26.752C65.1235 26.112 65.8275 25.024 65.8275 23.488C65.8275 21.9946 65.3155 20.8 64.2915 19.904C63.2675 19.008 61.7315 18.56 59.6835 18.56C57.3795 18.56 55.6515 19.0506 54.4995 20.032C53.3901 21.0133 52.7928 22.3573 52.7075 24.064H45.0275C45.0701 22.6133 45.3901 21.2266 45.9875 19.904C46.6275 18.5386 47.5448 17.344 48.7395 16.32C49.9768 15.296 51.4915 14.4853 53.2835 13.888C55.0755 13.248 57.1875 12.928 59.6195 12.928C61.5821 12.928 63.3101 13.0773 64.8035 13.376C66.3395 13.6746 67.6622 14.1866 68.7715 14.912C72.0142 16.8746 73.6355 20.1173 73.6355 24.64V42.624C73.6355 44.032 73.7421 45.12 73.9555 45.888C74.2115 46.656 74.5315 47.168 74.9155 47.424V48H67.0435ZM57.3795 43.264C58.7875 43.264 60.0248 43.0506 61.0915 42.624C62.1581 42.1546 63.0541 41.5786 63.7795 40.896C64.5048 40.1706 65.0595 39.36 65.4435 38.464C65.8275 37.5253 66.0195 36.5653 66.0195 35.584V30.528C65.2088 31.04 64.2061 31.488 63.0115 31.872C61.8168 32.2133 60.6008 32.512 59.3635 32.768C56.8461 33.2373 54.9048 33.856 53.5395 34.624C52.1741 35.3493 51.4915 36.6506 51.4915 38.528C51.4915 39.424 51.6408 40.192 51.9395 40.832C52.2808 41.4293 52.7075 41.92 53.2195 42.304C53.7741 42.6453 54.4141 42.9013 55.1395 43.072C55.8648 43.2 56.6115 43.264 57.3795 43.264Z"/>
<path d="M94.8455 49.088C89.9388 49.088 86.1201 48.0213 83.3895 45.888C80.7015 43.7546 79.2295 40.96 78.9735 37.504H86.7815C87.1228 39.552 88.0188 41.0453 89.4695 41.984C90.9201 42.88 92.7335 43.328 94.9095 43.328C97.1708 43.328 98.8348 42.9013 99.9015 42.048C100.968 41.152 101.501 40.0213 101.501 38.656C101.501 37.8026 101.288 37.12 100.861 36.608C100.435 36.0533 99.8375 35.6053 99.0695 35.264C98.3015 34.88 97.3628 34.5813 96.2535 34.368C95.1868 34.112 93.9921 33.856 92.6695 33.6C91.0481 33.3013 89.4908 32.9386 87.9975 32.512C86.5041 32.0853 85.1815 31.5093 84.0295 30.784C82.8775 30.016 81.9388 29.0346 81.2135 27.84C80.5308 26.6026 80.1895 25.024 80.1895 23.104C80.1895 21.4826 80.5095 20.0533 81.1495 18.816C81.8321 17.536 82.7495 16.4693 83.9015 15.616C85.0961 14.72 86.5255 14.0586 88.1895 13.632C89.8535 13.1626 91.6881 12.928 93.6935 12.928C98.2588 12.928 101.693 13.8666 103.997 15.744C106.344 17.5786 107.731 19.9893 108.157 22.976H100.413C99.8161 19.9466 97.5548 18.432 93.6295 18.432C91.7095 18.432 90.2588 18.816 89.2775 19.584C88.3388 20.352 87.8695 21.3333 87.8695 22.528C87.8695 23.296 88.0828 23.9146 88.5095 24.384C88.9362 24.8533 89.5335 25.2586 90.3015 25.6C91.0695 25.8986 91.9868 26.1546 93.0535 26.368C94.1201 26.5813 95.2935 26.816 96.5735 27.072C98.1948 27.3706 99.7735 27.7333 101.309 28.16C102.845 28.544 104.211 29.1413 105.405 29.952C106.643 30.72 107.624 31.7653 108.349 33.088C109.075 34.368 109.437 36.0533 109.437 38.144C109.437 39.936 109.075 41.5146 108.349 42.88C107.624 44.2453 106.6 45.3973 105.277 46.336C103.997 47.232 102.461 47.9146 100.669 48.384C98.8775 48.8533 96.9361 49.088 94.8455 49.088Z"/>
<path d="M115.021 0.383972H123.341V8.25597H115.021V0.383972ZM115.149 13.824H123.277V48H115.149V13.824Z"/>
<path d="M146.265 49.024C143.62 49.024 141.231 48.5546 139.097 47.616C136.964 46.6773 135.129 45.3973 133.593 43.776C132.1 42.1546 130.948 40.256 130.137 38.08C129.327 35.8613 128.921 33.4933 128.921 30.976C128.921 28.416 129.327 26.048 130.137 23.872C130.948 21.6533 132.1 19.7333 133.593 18.112C135.087 16.4906 136.879 15.232 138.969 14.336C141.103 13.3973 143.492 12.928 146.137 12.928C148.313 12.928 150.276 13.2266 152.025 13.824C153.817 14.4213 155.353 15.2533 156.633 16.32C157.956 17.3866 159.023 18.688 159.833 20.224C160.687 21.7173 161.263 23.3813 161.561 25.216H153.625C153.241 23.3386 152.409 21.8666 151.129 20.8C149.892 19.6906 148.249 19.136 146.201 19.136C144.708 19.136 143.385 19.4346 142.233 20.032C141.124 20.5866 140.185 21.3973 139.417 22.464C138.692 23.5306 138.137 24.7893 137.753 26.24C137.369 27.6906 137.177 29.2693 137.177 30.976C137.177 32.64 137.369 34.1973 137.753 35.648C138.137 37.056 138.692 38.2933 139.417 39.36C140.185 40.384 141.124 41.1946 142.233 41.792C143.385 42.3893 144.708 42.688 146.201 42.688C148.463 42.688 150.233 42.0693 151.513 40.832C152.836 39.5946 153.604 37.8453 153.817 35.584H161.753C161.625 37.5893 161.177 39.424 160.409 41.088C159.641 42.7093 158.575 44.1173 157.209 45.312C155.887 46.464 154.308 47.36 152.473 48C150.639 48.6826 148.569 49.024 146.265 49.024Z"/>
<path d="M182.831 49.024C180.186 49.024 177.775 48.5546 175.599 47.616C173.466 46.6773 171.631 45.3973 170.095 43.776C168.602 42.1546 167.428 40.256 166.575 38.08C165.764 35.8613 165.359 33.4933 165.359 30.976C165.359 28.416 165.764 26.048 166.575 23.872C167.428 21.6533 168.602 19.7333 170.095 18.112C171.631 16.4906 173.466 15.232 175.599 14.336C177.775 13.3973 180.186 12.928 182.831 12.928C185.476 12.928 187.866 13.3973 189.999 14.336C192.132 15.232 193.946 16.4906 195.439 18.112C196.975 19.7333 198.148 21.6533 198.959 23.872C199.77 26.048 200.175 28.416 200.175 30.976C200.175 33.4933 199.77 35.8613 198.959 38.08C198.148 40.256 196.975 42.1546 195.439 43.776C193.946 45.3973 192.132 46.6773 189.999 47.616C187.866 48.5546 185.476 49.024 182.831 49.024Z"/>
</svg>
