<svg width="50" height="50" viewBox="0 0 50 50" fill="none" xmlns="http://www.w3.org/2000/svg">
<rect width="50" height="50" fill="black"/>
<path d="M11.6293 7.88377C11.558 7.53151 11.9657 7.28284 12.2456 7.50785L25.5893 18.2341C25.7116 18.3324 25.753 18.5005 25.6906 18.6445C24.0406 22.4489 20.2997 24.9163 16.1573 24.9322L15.3963 24.9352C15.2132 24.9359 15.0551 24.8069 15.0188 24.6273L11.6293 7.88377Z" fill="#AF52DE"/>
<path d="M14.1699 29.797C14.1699 28.3796 14.4324 27.0235 14.9115 25.775L16.0171 25.7707C20.586 25.7532 24.712 23.0318 26.5318 18.8358L26.614 18.6463C32.2188 19.2639 36.5789 24.0206 36.5789 29.797C36.5789 30.258 36.5511 30.7125 36.4972 31.1589L28.6708 33.7328C27.797 34.0201 28.0755 35.323 28.9902 35.227L35.5308 34.5409C33.7458 38.3656 29.8692 41.0156 25.3744 41.0156C19.1863 41.0156 14.1699 35.9929 14.1699 29.797Z" fill="#AF52DE"/>
<path d="M40.8969 33.3294C42.7469 33.3022 44.2383 31.7921 44.2383 29.9333C44.2383 28.0574 42.7195 26.5367 40.846 26.5367C38.9726 26.5367 37.4538 28.0574 37.4538 29.9333C37.4538 30.4532 37.5705 30.9459 37.7791 31.3865L29.0084 34.2709C28.8337 34.3284 28.8894 34.5889 29.0723 34.5698L40.8969 33.3294Z" fill="#AF52DE"/>
</svg>
