<svg width="25" height="24" viewBox="0 0 25 24" fill="none" xmlns="http://www.w3.org/2000/svg">
<path d="M0.759766 12C0.759766 9.82399 1.29578 7.81601 2.36777 5.976C3.43977 4.13599 4.89578 2.68001 6.73577 1.608C8.57577 0.535992 10.5838 0 12.7598 0C14.9358 0 16.9438 0.535992 18.7838 1.608C20.6238 2.68001 22.0798 4.13599 23.1518 5.976C24.2238 7.81601 24.7598 9.82399 24.7598 12C24.7598 14.176 24.2238 16.184 23.1518 18.024C22.0798 19.864 20.6238 21.32 18.7838 22.392C16.9438 23.464 14.9358 24 12.7598 24C10.5838 24 8.57577 23.464 6.73577 22.392C4.89578 21.32 3.43977 19.864 2.36777 18.024C1.29578 16.184 0.759766 14.176 0.759766 12ZM2.75177 12C2.75177 14.496 3.59177 16.696 5.27177 18.6C6.03977 17.096 7.25577 15.664 8.91977 14.304C10.5838 12.944 12.2078 12.088 13.7918 11.736C13.5518 11.176 13.3198 10.672 13.0958 10.224C10.3438 11.104 7.36778 11.544 4.16777 11.544C3.54377 11.544 3.07977 11.536 2.77577 11.52C2.77577 11.584 2.77178 11.664 2.76377 11.76C2.75577 11.856 2.75177 11.936 2.75177 12ZM3.06377 9.528C3.41577 9.55999 3.93578 9.576 4.62377 9.576C7.29578 9.576 9.83177 9.216 12.2318 8.496C11.0158 6.336 9.67977 4.536 8.22377 3.096C6.95978 3.73601 5.87577 4.62401 4.97177 5.76C4.06778 6.89599 3.43178 8.15201 3.06377 9.528ZM6.63977 19.896C8.44778 21.304 10.4878 22.008 12.7598 22.008C13.9438 22.008 15.1198 21.784 16.2878 21.336C15.9678 18.6 15.3438 15.952 14.4158 13.392C12.9438 13.712 11.4598 14.52 9.96377 15.816C8.46777 17.112 7.35977 18.472 6.63977 19.896ZM10.3118 2.328C11.7198 3.78401 13.0238 5.59999 14.2238 7.776C16.3998 6.864 18.0398 5.70401 19.1438 4.296C17.2878 2.76 15.1598 1.992 12.7598 1.992C11.9438 1.992 11.1278 2.10401 10.3118 2.328ZM15.0878 9.48C15.3278 9.99199 15.5998 10.64 15.9038 11.424C17.0878 11.312 18.3758 11.256 19.7678 11.256C20.7598 11.256 21.7438 11.28 22.7198 11.328C22.5918 9.15199 21.8078 7.21601 20.3678 5.52C19.3278 7.07201 17.5678 8.39201 15.0878 9.48ZM16.5038 13.104C17.3198 15.472 17.8718 17.904 18.1598 20.4C19.4238 19.584 20.4558 18.536 21.2558 17.256C22.0558 15.976 22.5358 14.592 22.6958 13.104C21.5278 13.024 20.4638 12.984 19.5038 12.984C18.6238 12.984 17.6238 13.024 16.5038 13.104Z" fill="#898989"/>
</svg>
