<svg width="82" height="55" viewBox="0 0 82 55" fill="none" xmlns="http://www.w3.org/2000/svg">
<path fill-rule="evenodd" clip-rule="evenodd" d="M21.0775 0.274996C20.4007 0.517631 20.3231 0.621326 19.399 2.51763C18.8662 3.6111 18.3717 4.53141 18.3002 4.56257C18.2287 4.5939 18.1685 4.70883 18.1664 4.81798C18.1644 4.92729 17.7987 5.74459 17.3538 6.63425C16.5222 8.29745 16.0106 9.32213 15.271 10.8059C13.4878 14.3836 7.62187 26.1242 6.78049 27.7997C6.20712 28.9417 5.73386 30.0834 5.72898 30.3367C5.72157 30.7273 5.8062 30.8135 6.28704 30.9047C6.59879 30.964 7.76925 30.9866 8.88789 30.9551C10.6849 30.9044 10.9522 30.8581 11.1812 30.5572C11.4307 30.2294 14.6549 23.7062 16.483 19.8302C16.9689 18.8001 17.8994 16.8462 18.5509 15.4883C20.5578 11.3051 21.7032 8.82477 21.7032 8.66251C21.7032 8.57703 21.7789 8.50722 21.8715 8.50722C21.964 8.50722 22.0397 8.41987 22.0397 8.31311C22.0397 7.95725 22.7734 6.62642 22.9388 6.68209C23.1348 6.74833 25.2363 10.8617 25.2363 11.1791C25.2363 11.3015 25.312 11.4018 25.4045 11.4018C25.4971 11.4018 25.5728 11.4888 25.5728 11.5951C25.5728 11.7015 26.3677 13.4134 27.3393 15.3992C28.3109 17.3851 29.1052 19.0796 29.1042 19.1646C29.1033 19.2497 28.4701 20.5836 27.6968 22.1288C23.5191 30.4784 23.6313 30.2276 23.8877 30.6423C24.1032 30.9907 28.306 31.1005 28.9376 30.7745C29.2369 30.6199 29.722 29.8125 30.62 27.9739C31.314 26.553 31.9311 25.341 31.9914 25.2805C32.0516 25.2201 32.6573 26.3154 33.3373 27.7144C34.9652 31.0638 34.9169 31.029 37.8491 30.9541C40.2379 30.893 40.4632 30.8004 40.2608 29.9626C40.2041 29.7278 39.5904 28.4246 38.897 27.0667C36.4035 22.1833 36.0038 21.3682 36.0038 21.1683C36.0038 21.0566 35.9469 20.9398 35.8776 20.9085C35.6752 20.8176 34.9943 19.4496 34.9943 19.134C34.9943 18.8057 35.6865 17.3054 35.8776 17.2194C35.9469 17.1881 36.0041 17.0732 36.0046 16.964C36.0051 16.8547 36.3351 16.0757 36.7377 15.2329C37.1404 14.3901 37.9791 12.6278 38.6013 11.3167C40.349 7.63459 40.8094 6.74407 40.9991 6.68022C41.0955 6.6477 41.5344 7.37101 41.9747 8.28774C42.8285 10.0654 44.5217 13.5319 44.7434 13.9559C44.8168 14.0963 45.3939 15.2789 46.0258 16.5836C47.1209 18.845 47.3379 19.5823 46.9469 19.7142C46.8503 19.7468 46.7708 19.8629 46.7703 19.972C46.7696 20.0813 46.6479 20.4006 46.4999 20.6815C46.3517 20.9625 45.9296 21.8053 45.5619 22.5545C45.1942 23.3037 44.8282 24.0316 44.7485 24.1721C43.9315 25.6121 41.8923 30.0234 41.8923 30.3507C41.8923 30.91 42.1924 30.9778 44.6876 30.9805C47.2723 30.9836 47.2815 30.9768 48.6285 28.1191C49.8878 25.4472 49.8688 25.4825 50.0882 25.4086C50.1874 25.375 50.8074 26.4511 51.4659 27.8C52.1246 29.1487 52.8216 30.3975 53.0151 30.5749C53.314 30.8492 53.6914 30.9061 55.5236 30.9536C57.853 31.0139 58.3805 30.8845 58.3793 30.2533C58.379 30.0459 57.8132 28.7651 57.1219 27.4072C56.4307 26.0493 55.2128 23.6151 54.4157 21.9977L52.9661 19.0572L53.76 17.4004C54.1966 16.4893 55.0447 14.7093 55.6445 13.4451C58.2893 7.87143 58.9183 6.63459 59.1058 6.64123C59.2155 6.64515 59.4868 7.04732 59.7089 7.53515C59.9308 8.02297 61.1888 10.6441 62.5044 13.3599C66.6992 22.0195 67.2968 23.2785 67.2968 23.4576C67.2968 23.554 67.3535 23.6584 67.423 23.6897C67.5899 23.7648 69.6581 27.9461 69.6547 28.2019C69.6534 28.311 69.7089 28.4259 69.7784 28.4573C69.8477 28.4884 70.1371 28.9737 70.4212 29.5356C70.7054 30.0975 71.1218 30.6519 71.3465 30.7675C71.8521 31.0277 75.591 31.0588 76.0565 30.8067C76.2429 30.7057 76.3819 30.4513 76.3819 30.2112C76.3819 29.8528 70.0916 16.9191 69.8011 16.6802C69.744 16.6334 69.6411 16.4035 69.5719 16.1694C69.5028 15.9353 69.2465 15.3989 69.0024 14.9775C68.7581 14.5561 67.0877 11.2421 65.2902 7.61313C63.4925 3.98416 61.8843 0.865493 61.7162 0.682963C60.8817 -0.223555 57.3621 -0.229004 56.516 0.67479C56.3844 0.815263 54.9221 3.66933 53.2661 7.01736C51.6101 10.3652 50.1898 13.1045 50.11 13.1045C49.9876 13.1045 48.5804 10.3962 47.4116 7.91127C47.2354 7.53668 46.9429 6.96202 46.7613 6.63425C46.5798 6.30648 46.0843 5.3104 45.6602 4.42074C45.2362 3.53107 44.8254 2.68824 44.7473 2.54776C44.6693 2.40729 44.4006 1.89358 44.1506 1.40627C43.7624 0.650101 43.5839 0.481704 42.9323 0.256947C41.562 -0.215553 39.0411 0.00630953 38.4653 0.650101C38.1699 0.980596 35.4991 6.33508 35.4991 6.59696C35.4991 6.69554 35.4422 6.80162 35.3729 6.83295C35.3036 6.86411 34.5653 8.2605 33.7325 9.93596C32.8997 11.6116 32.1426 12.9908 32.0501 13.0008C31.843 13.0236 27.2552 4.00255 27.2552 3.57245C27.2552 3.49276 27.1983 3.40201 27.129 3.37068C26.9963 3.31108 26.0775 1.49209 26.0775 1.28878C26.0775 0.985023 25.253 0.345488 24.6474 0.179815C23.7115 -0.0762714 21.925 -0.028766 21.0775 0.274996ZM0 46.6477V54.991H1.17769H2.35539V51.245V47.4991H4.03781H5.72023V51.245V54.991H6.98204H8.24386V46.6477V38.3045H6.98204H5.72023V41.7099V45.1153H4.03781H2.35539V41.7099V38.3045H1.17769H0V46.6477ZM11.7769 46.6477V54.991H12.9546H14.1323V46.6477V38.3045H12.9546H11.7769V46.6477ZM18.3769 38.4184C18.2593 38.4664 18.051 38.7247 17.9142 38.9926C17.7061 39.3999 17.6654 40.6624 17.6654 46.7164C17.6654 54.2929 17.7019 54.6993 18.401 54.8892C18.5978 54.9426 20.1786 54.9874 21.9135 54.9886C24.8455 54.9908 25.0918 54.967 25.4045 54.6504C25.7223 54.3288 25.741 54.0829 25.741 50.2234V46.1369H23.638H21.535V47.1403C21.535 48.2616 21.6225 48.3504 22.7265 48.3504H23.3856V50.5607C23.3856 53.1257 23.4869 53.0029 21.4473 52.9139L20.2732 52.8626L20.2291 46.5987L20.1848 40.335L21.7433 40.3839L23.3015 40.4329L23.3503 41.8376L23.3993 43.2423H24.5701H25.741V41.114C25.741 38.1422 25.9629 38.3008 21.8294 38.318C20.0481 38.3253 18.4945 38.3706 18.3769 38.4184ZM29.5546 38.4181C29.4928 38.4804 29.4423 42.2349 29.4423 46.7613V54.991H30.7042H31.966V51.2389V47.4868L33.6063 47.5355L35.2467 47.5842L35.2921 51.2876L35.3374 54.991H36.596H37.8544V46.6403V38.2895L36.6347 38.3396L35.4149 38.3896L35.3308 41.7099L35.2467 45.0302L33.6063 45.0789L31.966 45.1276V41.716V38.3045H30.8164C30.184 38.3045 29.6161 38.3556 29.5546 38.4181ZM41.3875 46.6477V54.991H44.5922H47.7967L47.7467 53.9268L47.6966 52.8626L45.7198 52.8146L43.7429 52.7668V45.5355V38.3045H42.5652H41.3875V46.6477ZM53.2721 38.6025C53.2265 38.7665 53.1394 39.2453 53.0785 39.6667C53.0178 40.0881 52.9002 40.7011 52.817 41.0288C52.7341 41.3566 52.4725 42.6975 52.2358 44.0086C51.9991 45.3196 51.7356 46.6988 51.6503 47.0734C51.565 47.448 51.3007 48.8272 51.063 50.1383C50.8252 51.4494 50.5602 52.8286 50.4739 53.2032C50.3878 53.5777 50.2705 54.1332 50.2133 54.4376L50.1094 54.991H51.3626H52.616L52.7173 54.2673C52.773 53.8694 52.8684 53.1798 52.9293 52.7349L53.04 51.9261H54.5782H56.1163L56.3229 52.825C56.4364 53.3194 56.5293 53.8878 56.5293 54.088C56.5293 54.8977 56.6703 54.991 57.8932 54.991C59.1895 54.991 59.1601 55.0317 58.8798 53.6288C58.7957 53.2074 58.5711 52.0198 58.381 50.9896C58.1907 49.9595 57.9266 48.5803 57.794 47.9248C57.6614 47.2692 57.4387 46.1199 57.2987 45.3707C57.1589 44.6215 56.8895 43.204 56.7001 42.2207C56.5106 41.2374 56.27 39.9541 56.1652 39.3687L55.9748 38.3045H54.6652C53.5615 38.3045 53.3423 38.3515 53.2721 38.6025ZM61.4083 46.6477V54.991H62.586H63.7637V50.2234C63.7637 47.6013 63.8218 45.4559 63.8928 45.4559C63.9637 45.4559 64.2403 46.0879 64.5073 46.8606C64.7743 47.6333 65.0491 48.3419 65.1179 48.4356C65.1867 48.5292 65.3221 48.874 65.4189 49.2018C65.6608 50.0213 67.3535 54.5158 67.5189 54.7782C67.6016 54.9093 68.0367 54.991 68.6527 54.991H69.6522V46.6477V38.3045H68.4745H67.2968L67.2912 43.1146L67.2859 47.9248L66.9605 47.1586C66.7816 46.7371 66.2258 45.3196 65.7252 44.0086C65.2247 42.6975 64.5279 40.8778 64.1766 39.9646L63.5378 38.3045H62.4731H61.4083V46.6477ZM73.1853 46.6348V54.991H76.2027C77.8622 54.991 79.4122 54.9171 79.6469 54.8267C80.4397 54.5217 81.0729 53.7387 81.2668 52.8236C81.3844 52.2689 81.4308 49.8779 81.3972 46.1122C81.3394 39.6314 81.3455 39.6685 80.1781 38.7814C79.6888 38.4096 79.4982 38.3867 76.4239 38.3341L73.1853 38.2785V46.6348ZM78.3587 40.6864L78.9055 41.0239V46.5601C78.9055 51.8165 78.889 52.1131 78.5784 52.4274C78.1985 52.8119 77.4038 52.9956 76.4586 52.9176L75.793 52.8626L75.7489 46.6052L75.7047 40.3478L76.7584 40.3484C77.5116 40.3488 77.9677 40.4451 78.3587 40.6864ZM54.9951 44.3917C55.105 45.1174 55.307 46.4392 55.444 47.3288C55.5811 48.2185 55.711 49.0996 55.7327 49.2869C55.7683 49.5936 55.6592 49.6324 54.6366 49.6779C53.792 49.7153 53.5018 49.6716 53.5041 49.5076C53.506 49.3862 53.6162 48.559 53.7491 47.6694C53.882 46.7797 54.0757 45.4771 54.1796 44.7748C54.4047 43.2526 54.4544 43.0721 54.6477 43.0721C54.7289 43.0721 54.8852 43.666 54.9951 44.3917Z" fill="white"/>
</svg>
