<svg width="50" height="50" viewBox="0 0 50 50" fill="none" xmlns="http://www.w3.org/2000/svg">
<rect width="50" height="50" fill="black"/>
<path d="M37.4512 6.68945H12.5488C9.31278 6.68945 6.68945 9.31278 6.68945 12.5488V37.4512C6.68945 40.6872 9.31278 43.3105 12.5488 43.3105H37.4512C40.6872 43.3105 43.3105 40.6872 43.3105 37.4512V12.5488C43.3105 9.31278 40.6872 6.68945 37.4512 6.68945Z" fill="#2C2C2E"/>
<path d="M34.668 39.0625C37.095 39.0625 39.0625 37.095 39.0625 34.668C39.0625 32.2409 37.095 30.2734 34.668 30.2734C32.2409 30.2734 30.2734 32.2409 30.2734 34.668C30.2734 37.095 32.2409 39.0625 34.668 39.0625Z" fill="#34C759"/>
<path d="M33.9728 36.9059C34.1091 36.9059 34.2146 36.8492 34.2892 36.7385L36.7067 32.966C36.7607 32.881 36.7838 32.8088 36.7838 32.7392C36.7838 32.5563 36.6553 32.4301 36.4701 32.4301C36.3441 32.4301 36.2669 32.4764 36.1897 32.5975L33.96 36.1406L32.8155 34.6693C32.7384 34.5688 32.6586 34.5276 32.5455 34.5276C32.3603 34.5276 32.2266 34.659 32.2266 34.8393C32.2266 34.9192 32.2548 34.9966 32.3217 35.0764L33.654 36.741C33.7439 36.8544 33.8391 36.9059 33.9728 36.9059Z" fill="white"/>
<path d="M36.8408 12.5H13.1104C11.9103 12.5 10.9375 13.4728 10.9375 14.6729C10.9375 15.8729 11.9103 16.8457 13.1104 16.8457H36.8408C38.0409 16.8457 39.0137 15.8729 39.0137 14.6729C39.0137 13.4728 38.0409 12.5 36.8408 12.5Z" fill="#C4C4C4"/>
<path d="M29.8096 19.7266H13.1104C11.9103 19.7266 10.9375 20.6994 10.9375 21.8994C10.9375 23.0994 11.9103 24.0723 13.1104 24.0723H29.8096C31.0096 24.0723 31.9824 23.0994 31.9824 21.8994C31.9824 20.6994 31.0096 19.7266 29.8096 19.7266Z" fill="#C4C4C4"/>
<path d="M22.0703 30.2734H13.8672C12.2492 30.2734 10.9375 31.5851 10.9375 33.2031V36.1328C10.9375 37.7508 12.2492 39.0625 13.8672 39.0625H22.0703C23.6883 39.0625 25 37.7508 25 36.1328V33.2031C25 31.5851 23.6883 30.2734 22.0703 30.2734Z" fill="#5F5F5F"/>
</svg>
