<svg width="506" height="124" viewBox="0 0 506 124" fill="none" xmlns="http://www.w3.org/2000/svg">
<path d="M0.190918 0.31427H54.7168C67.2291 0.31427 76.6673 3.38901 83.0314 9.53849C89.1797 15.1485 92.2539 22.4848 92.2539 31.5472C92.2539 43.954 85.6741 52.1533 72.5145 56.1451V56.6306C80.0651 58.4647 86.0516 61.8631 90.4741 66.8258C94.8966 71.7885 97.1078 78.0999 97.1078 85.7597C97.1078 91.154 96.1909 95.9549 94.3572 100.162C92.5235 104.262 89.8808 107.768 86.4291 110.681C82.9775 113.918 78.7168 116.399 73.6471 118.125C68.6853 119.852 62.9685 120.715 56.4965 120.715H0.190918V0.31427ZM51.4808 49.9956C57.3055 49.9956 61.8898 48.6471 65.2336 45.9499C68.6853 43.1449 70.4112 39.1531 70.4112 33.9746C70.4112 29.0119 68.7932 25.1819 65.5572 22.4848C62.4291 19.6798 58.1145 18.2772 52.6134 18.2772H22.3572V49.9956H51.4808ZM54.555 102.428C58.0067 102.428 60.973 101.997 63.4539 101.133C66.0426 100.162 68.146 98.8678 69.764 97.2496C72.9999 94.2288 74.6179 90.1291 74.6179 84.9506C74.6179 78.8011 72.6763 74.216 68.7932 71.1952C64.91 68.1744 59.9482 66.664 53.9078 66.664H22.3572V102.428H54.555Z" fill="white"/>
<path d="M168.469 120.715C167.714 119.744 167.067 118.395 166.528 116.669C166.096 114.835 165.773 112.461 165.557 109.549H165.234C162.429 113.325 158.923 116.507 154.717 119.096C150.51 121.578 144.955 122.818 138.051 122.818C133.845 122.818 129.908 122.279 126.24 121.2C122.681 120.121 119.607 118.503 117.018 116.345C114.429 114.188 112.38 111.544 110.869 108.416C109.359 105.179 108.604 101.457 108.604 97.2496C108.604 92.3947 109.467 88.4029 111.193 85.2742C113.027 82.0377 115.508 79.4484 118.636 77.5065C121.764 75.5645 125.485 74.1081 129.8 73.1371C134.114 72.0583 138.86 71.1952 144.038 70.5479C151.157 69.6848 156.496 68.498 160.056 66.9876C163.616 65.3693 165.395 62.6183 165.395 58.7344C165.395 54.9584 164.101 51.9376 161.512 49.672C158.923 47.4064 155.04 46.2736 149.863 46.2736C144.038 46.2736 139.669 47.5143 136.757 49.9956C133.953 52.477 132.442 55.8754 132.227 60.1908H112.811C112.919 56.5227 113.728 53.0164 115.238 49.672C116.856 46.2196 119.175 43.1988 122.195 40.6096C125.323 38.0203 129.153 35.9705 133.683 34.4601C138.213 32.8418 143.553 32.0327 149.701 32.0327C154.663 32.0327 159.031 32.4103 162.807 33.1655C166.69 33.9207 170.034 35.2153 172.838 37.0493C181.036 42.0121 185.135 50.2114 185.135 61.6473V107.121C185.135 110.681 185.404 113.432 185.944 115.374C186.591 117.316 187.4 118.611 188.371 119.258V120.715H168.469ZM144.038 108.739C147.598 108.739 150.726 108.2 153.422 107.121C156.119 105.934 158.384 104.478 160.218 102.752C162.051 100.918 163.454 98.8679 164.425 96.6023C165.395 94.2288 165.881 91.8013 165.881 89.32V76.5355C163.831 77.8301 161.296 78.9629 158.276 79.9339C155.256 80.797 152.182 81.5522 149.054 82.1995C142.69 83.3863 137.782 84.9506 134.33 86.8925C130.878 88.7266 129.153 92.0171 129.153 96.7641C129.153 99.0297 129.53 100.972 130.285 102.59C131.148 104.1 132.227 105.341 133.521 106.312C134.923 107.175 136.541 107.822 138.375 108.254C140.209 108.578 142.096 108.739 144.038 108.739Z" fill="white"/>
<path d="M238.755 123.466C226.351 123.466 216.697 120.769 209.794 115.374C202.998 109.98 199.277 102.914 198.63 94.1748H218.369C219.232 99.3533 221.497 103.129 225.164 105.503C228.832 107.768 233.416 108.901 238.917 108.901C244.634 108.901 248.841 107.822 251.537 105.665C254.234 103.399 255.582 100.54 255.582 97.0877C255.582 94.93 255.043 93.2038 253.964 91.9092C252.886 90.5067 251.376 89.3739 249.434 88.5108C247.492 87.5399 245.119 86.7847 242.315 86.2452C239.618 85.5979 236.598 84.9506 233.254 84.3033C229.155 83.5481 225.218 82.6311 221.443 81.5522C217.668 80.4733 214.324 79.0169 211.412 77.1828C208.499 75.2409 206.126 72.7595 204.292 69.7387C202.567 66.61 201.704 62.6183 201.704 57.7634C201.704 53.6637 202.513 50.0496 204.131 46.9209C205.857 43.6843 208.176 40.9872 211.088 38.8295C214.108 36.5639 217.722 34.8916 221.928 33.8128C226.135 32.626 230.773 32.0327 235.843 32.0327C247.385 32.0327 256.068 34.4061 261.893 39.1531C267.825 43.7922 271.331 49.8877 272.409 57.4397H252.832C251.322 49.7799 245.605 45.9499 235.681 45.9499C230.827 45.9499 227.16 46.9209 224.679 48.8628C222.306 50.8048 221.119 53.2861 221.119 56.3069C221.119 58.2489 221.659 59.8132 222.737 61C223.816 62.1867 225.326 63.2116 227.268 64.0747C229.209 64.8299 231.528 65.4772 234.225 66.0167C236.922 66.5561 239.888 67.1495 243.124 67.7968C247.223 68.552 251.214 69.469 255.097 70.5479C258.98 71.5188 262.432 73.0292 265.452 75.0791C268.58 77.021 271.061 79.6642 272.895 83.0087C274.728 86.2452 275.645 90.5067 275.645 95.7931C275.645 100.324 274.728 104.316 272.895 107.768C271.061 111.221 268.472 114.134 265.128 116.507C261.892 118.773 258.009 120.499 253.479 121.686C248.949 122.872 244.041 123.466 238.755 123.466Z" fill="white"/>
<path d="M289.762 0.31427H310.796V20.2192H289.762V0.31427ZM290.086 34.2983H310.634V120.715H290.086V34.2983Z" fill="white"/>
<path d="M368.75 123.304C362.062 123.304 356.022 122.117 350.628 119.744C345.235 117.37 340.597 114.134 336.714 110.034C332.939 105.934 330.026 101.133 327.977 95.6313C325.927 90.0212 324.903 84.0336 324.903 77.6683C324.903 71.1952 325.927 65.2075 327.977 59.7053C330.026 54.0953 332.939 49.2404 336.714 45.1408C340.489 41.0411 345.019 37.8585 350.305 35.5929C355.698 33.2194 361.739 32.0327 368.426 32.0327C373.927 32.0327 378.889 32.7879 383.312 34.2983C387.842 35.8087 391.725 37.9124 394.961 40.6096C398.305 43.3067 401.002 46.5972 403.051 50.4811C405.208 54.2571 406.664 58.4647 407.419 63.1037H387.357C386.386 58.3568 384.282 54.6347 381.046 51.9376C377.918 49.1325 373.766 47.73 368.588 47.73C364.813 47.73 361.469 48.4852 358.557 49.9956C355.752 51.3981 353.379 53.448 351.437 56.1451C349.604 58.8423 348.202 62.0249 347.231 65.693C346.26 69.3611 345.775 73.3529 345.775 77.6683C345.775 81.8759 346.26 85.8137 347.231 89.4818C348.202 93.042 349.604 96.1707 351.437 98.8679C353.379 101.457 355.752 103.507 358.557 105.017C361.469 106.528 364.813 107.283 368.588 107.283C374.305 107.283 378.781 105.719 382.017 102.59C385.361 99.4612 387.303 95.0379 387.842 89.32H407.905C407.581 94.3906 406.449 99.0297 404.507 103.237C402.566 107.337 399.869 110.897 396.417 113.918C393.073 116.831 389.082 119.096 384.444 120.715C379.806 122.441 374.575 123.304 368.75 123.304Z" fill="white"/>
<path d="M461.191 123.304C454.503 123.304 448.409 122.117 442.908 119.744C437.514 117.37 432.876 114.134 428.993 110.034C425.218 105.934 422.251 101.133 420.094 95.6313C418.045 90.0212 417.02 84.0336 417.02 77.6683C417.02 71.1952 418.045 65.2075 420.094 59.7053C422.251 54.0953 425.218 49.2404 428.993 45.1408C432.876 41.0411 437.514 37.8585 442.908 35.5929C448.409 33.2194 454.503 32.0327 461.191 32.0327C467.878 32.0327 473.919 33.2194 479.312 35.5929C484.705 37.8585 489.29 41.0411 493.065 45.1408C496.948 49.2404 499.914 54.0953 501.964 59.7053C504.013 65.2075 505.038 71.1952 505.038 77.6683C505.038 84.0336 504.013 90.0212 501.964 95.6313C499.914 101.133 496.948 105.934 493.065 110.034C489.29 114.134 484.705 117.37 479.312 119.744C473.919 122.117 467.878 123.304 461.191 123.304Z" fill="white"/>
</svg>
