<svg width="58" height="58" viewBox="0 0 58 58" fill="none" xmlns="http://www.w3.org/2000/svg">
<path d="M33.4356 42.128H33.8532H40.2571C40.6469 42.128 41.0645 42.0747 41.4265 41.9681C43.2641 41.4619 44.7676 40.2099 45.5472 38.5315C46.0206 37.5192 46.299 36.4272 46.3547 35.3347C46.4382 34.3223 46.4103 33.31 46.2433 32.3243C46.1041 31.4718 45.8257 30.6459 45.408 29.8734C44.6284 28.3815 43.2084 27.2626 41.51 26.8097C41.1759 26.7032 40.8139 26.6499 40.452 26.6499H33.7976H33.4913C33.4634 26.7032 33.4634 26.7298 33.4634 26.7831C33.4356 31.8714 33.4356 36.9864 33.4356 42.128ZM24.86 7.73519C24.9992 7.73519 25.1385 7.7621 25.2777 7.7621L31.2639 7.81511L32.4611 7.84175C32.5725 7.84175 32.6839 7.84175 32.7952 7.86839C32.8509 7.97495 32.8509 8.10816 32.8509 8.24136C32.8509 10.0265 32.8231 11.7845 32.8231 13.5694C32.7952 15.7007 32.7952 17.8319 32.7952 19.9631V20.2828C32.9344 20.3894 33.0458 20.3361 33.185 20.3361H37.1944H42.6237C43.3476 20.3361 44.0716 20.3894 44.7676 20.5492C46.1319 20.8156 47.4405 21.2952 48.6378 21.9345C49.8629 22.6005 50.9209 23.533 51.7562 24.6252C52.5079 25.5843 53.1483 26.6232 53.6773 27.7421C54.1228 28.7811 54.4569 29.8734 54.624 30.9923C54.8467 32.4841 54.9302 34.0026 54.8467 35.5211C54.8189 36.2671 54.791 37.013 54.6797 37.7592C54.5683 38.7713 54.3177 39.7572 53.9836 40.716C53.5381 41.8885 52.8699 42.9805 52.0346 43.9395C50.5868 45.6445 48.7213 46.9501 46.5774 47.7494C45.8535 48.0158 45.1017 48.2286 44.3221 48.3352C44.1829 48.3618 44.0437 48.3618 43.9045 48.3618H32.7952H32.4611C32.4054 48.2286 32.3497 48.149 32.3219 48.0421C29.7325 41.7017 27.1431 35.3616 24.5538 29.0209C24.4981 28.861 24.4424 28.6746 24.4424 28.4881C24.4702 21.9079 24.4702 15.3011 24.4702 8.72088C24.4702 8.4281 24.4702 8.10816 24.4981 7.78847L24.86 7.73519Z" fill="white"/>
<path d="M11.0223 7.73377C11.078 7.84033 11.1615 7.97353 11.2172 8.0801C12.7207 11.6766 14.2242 15.2996 15.6999 18.8961L27.7001 47.8276C27.7836 47.9608 27.8393 48.1206 27.8672 48.2805C27.8115 48.2805 27.7558 48.3071 27.7001 48.3071H27.4495H20.7116C20.6002 48.2272 20.5445 48.094 20.5167 47.9874C19.7092 46.0691 18.9296 44.1512 18.1222 42.2598L3.97807 8.10673C3.89454 8.00017 3.8667 7.86697 3.8667 7.73377H11.0223Z" fill="#D4483E"/>
</svg>
