<svg width="56" height="56" viewBox="0 0 56 56" fill="none" xmlns="http://www.w3.org/2000/svg">
<path d="M54.9446 15.3297C54.9551 14.3652 54.7755 13.408 54.4162 12.5129C54.0569 11.6179 53.5248 10.8023 52.8503 10.1129C52.1758 9.42346 51.3722 8.87366 50.4853 8.49486C49.5984 8.11607 48.6456 7.91571 47.6812 7.90522C46.7169 7.89473 45.76 8.07431 44.865 8.43372C43.9701 8.79313 43.1547 9.32532 42.4654 9.9999C41.0733 11.3623 40.2793 13.222 40.2581 15.1699C40.119 15.005 39.9773 14.8426 39.8227 14.688C39.1518 14.0122 38.3537 13.476 37.4746 13.1102C36.5955 12.7445 35.6526 12.5564 34.7005 12.5568H34.515C33.4087 12.558 32.3175 12.8128 31.3251 13.3015C30.3326 13.7902 29.4653 14.4999 28.7898 15.3761C28.4054 13.607 27.3811 12.0424 25.9136 10.9827C24.4461 9.92302 22.6389 9.44294 20.8391 9.63468C19.0393 9.82642 17.3738 10.6765 16.1624 12.0216C14.951 13.3667 14.2792 15.112 14.276 16.9223V20.2132C14.1317 20.0431 13.9822 19.8756 13.8225 19.7158C12.7971 18.688 11.49 17.9876 10.0666 17.703C8.64309 17.4183 7.16719 17.5624 5.82559 18.1169C4.48399 18.6714 3.33697 19.6114 2.52963 20.8181C1.72228 22.0247 1.29089 23.4438 1.29004 24.8957V37.5541C1.2914 39.5009 2.06471 41.3677 3.44035 42.7451C4.81599 44.1224 6.68165 44.8978 8.62812 44.9012V44.9012C10.4547 44.8985 12.2149 44.2155 13.5653 42.9853C14.9158 41.7552 15.7598 40.066 15.9327 38.2473C16.0873 38.4328 16.2471 38.6107 16.4197 38.7833C17.0989 39.4684 17.9073 40.0118 18.7981 40.3821C19.6889 40.7524 20.6443 40.9421 21.6089 40.9403V40.9403C22.6871 40.9404 23.7521 40.7025 24.7279 40.2437C25.7037 39.7849 26.5663 39.1164 27.2542 38.286V39.6002C27.2549 41.5236 28.0184 43.3681 29.3772 44.7291C30.736 46.0901 32.5791 46.8564 34.5021 46.8598H34.685C36.6069 46.857 38.4494 46.0926 39.8089 44.7338C41.1683 43.3751 41.934 41.5328 41.9381 39.6106V33.6834C42.0823 33.856 42.2318 34.0235 42.3915 34.1833C43.0742 34.8688 43.8864 35.4116 44.7808 35.7801C45.6753 36.1486 46.634 36.3356 47.6014 36.33V36.33C49.5476 36.3286 51.4138 35.5551 52.7905 34.1791C54.1672 32.8032 54.9419 30.9372 54.9446 28.9906V15.3297ZM12.2328 24.9034V37.5618C12.2294 38.5092 11.8514 39.4168 11.1814 40.0864C10.5113 40.7561 9.60367 41.1334 8.65647 41.1362V41.1362C7.70861 41.1334 6.80042 40.7553 6.13066 40.0844C5.4609 39.4136 5.08411 38.5047 5.08276 37.5567V24.8982C5.08615 23.9506 5.46403 23.0428 6.13397 22.3727C6.80392 21.7026 7.7116 21.3247 8.65904 21.3213V21.3213C9.60672 21.3261 10.5141 21.7052 11.1835 22.3762C11.8529 23.0471 12.23 23.9555 12.2328 24.9034V24.9034ZM25.2187 16.9274L25.2058 33.6009C25.2024 34.5483 24.8244 35.4558 24.1544 36.1255C23.4844 36.7952 22.5767 37.1725 21.6295 37.1753V37.1753C20.6817 37.1725 19.7735 36.7944 19.1037 36.1235C18.4339 35.4527 18.0572 34.5438 18.0558 33.5957V16.9223C18.0599 15.9747 18.4384 15.0671 19.1088 14.3975C19.7793 13.7279 20.6872 13.3506 21.6347 13.3479V13.3479C22.5839 13.3493 23.4939 13.7267 24.1656 14.3975C24.8373 15.0684 25.216 15.978 25.2187 16.9274V16.9274ZM38.1969 19.8137V39.608C38.1928 40.5319 37.8239 41.4168 37.1704 42.0699C36.517 42.723 35.632 43.0913 34.7082 43.0947H34.5278C33.6034 43.0913 32.7179 42.7222 32.0647 42.0679C31.4115 41.4136 31.0438 40.5274 31.0417 39.6028L31.0572 19.8086C31.0599 18.8856 31.4274 18.001 32.0794 17.3479C32.7315 16.6947 33.6153 16.3259 34.5381 16.3218H34.7185C35.6416 16.3273 36.5251 16.6973 37.1766 17.3514C37.8281 18.0054 38.1949 18.8905 38.1969 19.8137V19.8137ZM51.1828 15.3271V28.9854C51.1787 29.933 50.8002 30.8406 50.1298 31.5102C49.4593 32.1798 48.5514 32.5571 47.604 32.5598V32.5598C46.6561 32.557 45.7479 32.1789 45.0781 31.508C44.4084 30.8372 44.0316 29.9283 44.0302 28.9803V15.3219C44.0336 14.3746 44.4116 13.467 45.0816 12.7973C45.7516 12.1277 46.6593 11.7503 47.6065 11.7476V11.7476C48.5562 11.7476 49.467 12.1245 50.139 12.7957C50.811 13.4668 51.1892 14.3773 51.1905 15.3271H51.1828Z" fill="#F7C53B"/>
</svg>
