<svg width="24" height="24" viewBox="0 0 24 24" fill="none" xmlns="http://www.w3.org/2000/svg">
<path fill-rule="evenodd" clip-rule="evenodd" d="M12 24C18.6274 24 24 18.6274 24 12C24 5.37256 18.6274 0 12 0C5.37256 0 0 5.37256 0 12C0 18.6274 5.37256 24 12 24ZM11.3872 13.4434C11.1885 15.0332 9.87256 16.1343 8.08936 16.1343C5.86035 16.1343 4.45312 14.5981 4.45312 12.1221V12.1167C4.45312 9.64062 5.86572 8.11523 8.08936 8.11523C9.87256 8.11523 11.1831 9.22705 11.3872 10.8062L11.3926 10.8599H10.0337L10.0068 10.7578C9.78125 9.87158 9.09912 9.31836 8.08936 9.31836C6.73584 9.31836 5.87109 10.3979 5.87109 12.1167V12.1221C5.87109 13.8462 6.74121 14.9312 8.08936 14.9312C9.07764 14.9312 9.77051 14.3994 10.0229 13.4434L10.0391 13.3896H11.3979L11.3872 13.4434ZM16.1299 16H14.5239L11.8384 8.24951H13.3477L15.3135 14.5229H15.3403L17.3115 8.24951H18.8208L16.1299 16Z" fill="#898989"/>
</svg>
