<svg width="58" height="49" viewBox="0 0 58 49" fill="none" xmlns="http://www.w3.org/2000/svg">
<path fill-rule="evenodd" clip-rule="evenodd" d="M40.1375 0.346056C39.7279 0.544278 39.245 0.873167 39.0646 1.07702C38.862 1.30576 38.2916 1.5902 37.575 1.81983C36.2822 2.23391 36.2336 2.26517 35.3154 3.27909L34.6643 3.99821L34.769 5.6065C34.8267 6.49095 34.9549 7.85021 35.054 8.62695C35.153 9.40369 35.1797 10.1358 35.1134 10.2538C34.7647 10.8733 34.9366 11.8696 35.8946 14.7806C36.1678 15.6105 36.5059 15.8729 36.839 15.5135C36.9711 15.371 36.9493 15.3507 36.7424 15.4232C36.4179 15.537 36.129 14.9262 35.5429 12.885C35.1532 11.5284 35.0403 10.6318 35.2591 10.633C35.4539 10.6339 35.9471 12.0038 36.1122 13.0025C36.2455 13.8092 36.319 13.9652 36.5658 13.9655C36.7903 13.9656 36.8889 14.107 36.9796 14.5584C37.0453 14.8843 37.2295 15.7246 37.3892 16.4256C37.5491 17.1268 37.6797 17.8012 37.6797 17.9243C37.6797 18.0472 37.8138 18.3175 37.9776 18.5247C38.2259 18.8387 38.2755 19.1258 38.2755 20.2484C38.2755 21.4683 38.249 21.5954 37.9953 21.5954C37.7875 21.5954 37.6715 21.7677 37.5462 22.2621C37.4534 22.6287 37.31 22.9287 37.2273 22.9287C37.1448 22.9287 36.7938 23.1822 36.4475 23.4921C35.4523 24.3827 34.2748 25.1582 33.1315 25.6764C32.2185 26.0902 31.4734 26.6031 30.3285 27.6059C30.1286 27.7809 30.0081 27.8027 29.8897 27.6849C29.7713 27.5671 29.8018 27.4675 30.001 27.3227C30.2244 27.1603 30.2608 26.9911 30.1957 26.4163C30.09 25.4853 29.7263 25.0181 28.7104 24.5087C27.9465 24.1258 27.6486 24.0742 25.3315 23.9241L22.7906 23.7595L22.8244 23.3151C22.8564 22.8942 22.8028 22.8489 21.8155 22.4612C21.242 22.2358 20.5527 22.0489 20.284 22.0458C19.5134 22.0364 19.5151 21.675 20.2891 20.8803C20.6762 20.4828 21.2046 19.6834 21.5298 19.0028C22.0096 17.9988 22.1129 17.6025 22.206 16.4102C22.2664 15.6361 22.3899 14.756 22.4803 14.4544C22.7565 13.5336 23.356 12.2855 23.674 11.9692C23.8398 11.8043 23.9754 11.5739 23.9754 11.4572C23.9754 11.3404 24.1172 11.2003 24.2904 11.1455C24.5748 11.0558 24.5958 10.9739 24.5066 10.3046C24.3832 9.37999 24.0874 8.49747 23.4321 7.09924C23.1338 6.4625 22.9586 5.89598 23.01 5.7345C23.1236 5.3785 22.896 4.96635 22.2074 4.28146C21.9029 3.97865 21.5621 3.50043 21.4502 3.21865C21.2201 2.63983 20.5822 1.89169 20.3187 1.89169C20.2226 1.89169 19.896 1.72428 19.5928 1.51969C18.0189 0.457463 12.6162 -0.114093 11.1715 0.629019C10.6241 0.9105 10.3344 1.43761 10.1917 2.41213C10.0149 3.6188 9.78115 3.94117 9.04395 3.99421C8.53823 4.03065 8.37542 4.1148 8.23227 4.41317C7.95327 4.99509 7.70629 7.85362 7.7623 9.85213C7.80833 11.4875 7.84348 11.6853 8.12263 11.8797C8.41191 12.0809 8.4277 12.2019 8.3644 13.7312C8.28321 15.6901 8.39925 15.9496 9.59123 16.4738C10.3698 16.8163 10.3898 16.8404 10.4728 17.5431C10.7037 19.4994 10.9077 22.3129 10.8328 22.507C10.7412 22.7447 9.50885 23.1475 7.29188 23.6646C5.29031 24.1314 4.72248 24.3098 3.12101 24.9747C1.2176 25.765 0.740628 26.0219 0.339777 26.4724L0 26.8547L0.0336649 32.1757C0.0574985 35.9449 0.11604 37.5129 0.234165 37.552C0.325924 37.5824 0.560536 37.4744 0.755525 37.3118C2.22695 36.0858 3.00601 35.5058 3.08109 35.5803C3.12935 35.6283 3.05755 35.7899 2.92155 35.9396C2.62229 36.2683 2.60412 36.6124 2.87418 36.8354C3.11088 37.0307 4.7898 37.2806 5.26201 37.1908C5.44299 37.1564 6.308 37.3 7.18419 37.5099C9.09907 37.9687 9.15865 37.9707 9.89868 37.5954C10.5961 37.2418 10.8669 37.221 10.8669 37.5213C10.8669 37.9927 11.4319 38.3361 12.2076 38.3361C12.822 38.3361 12.9524 38.3822 12.9524 38.5994C12.9524 39.1027 13.3762 39.4918 14.0314 39.5902C15.4743 39.8068 15.4847 39.8117 15.4847 40.2704C15.4847 40.8166 15.8203 41.032 17.3084 41.4413C18.4076 41.7436 18.4865 41.7468 18.9891 41.5096C19.2791 41.3727 19.7224 41.0693 19.9742 40.8354C20.2259 40.6016 20.5484 40.4102 20.691 40.4102C21.2222 40.4102 21.4718 39.8735 21.7043 38.2313C21.8289 37.3518 21.9431 36.6166 21.9583 36.5972C21.9734 36.5776 22.5256 36.825 23.1855 37.1467C24.2469 37.664 24.4129 37.8007 24.6271 38.333C24.7623 38.6692 24.8692 39.3533 24.8692 39.8833C24.8692 40.8293 24.868 40.8321 24.3658 40.9969C23.611 41.2446 23.3274 41.6157 23.5394 42.0784C23.6334 42.2837 23.8705 42.5242 24.0663 42.6129C24.6689 42.8861 24.6871 42.861 22.0727 45.3464C21.3168 46.065 20.6983 46.7406 20.6983 46.8477C20.6983 47.211 21.8241 48.0561 22.8647 48.4741C25.4632 49.5173 28.4241 48.971 29.9426 47.1679C30.1961 46.8668 31.997 46.1569 32.1963 46.2794C32.2628 46.3201 32.3171 46.6185 32.3171 46.9422C32.3171 47.6837 32.648 48.4862 33.0396 48.6947C33.418 48.896 34.5515 48.9049 34.5515 48.7065C34.5515 48.625 34.3218 48.5584 34.0411 48.5584C33.3703 48.5584 32.9851 48.0705 32.8488 47.0487C32.7916 46.6202 32.6739 46.1844 32.5872 46.0806C32.377 45.8287 31.2932 45.8492 30.8275 46.1139C29.9822 46.5945 29.6587 46.256 30.0087 45.2567C30.3588 44.2575 30.3066 44.0443 29.6391 43.745C29.197 43.5467 28.8376 43.5006 28.224 43.5637L27.4016 43.648L27.3051 43.0483C27.2281 42.5692 27.1044 42.3874 26.6899 42.1441L26.1712 41.8399L26.8092 41.6524C27.8741 41.3397 27.989 40.7882 27.149 40.0228C26.8461 39.747 26.511 39.5213 26.4042 39.5213C26.125 39.5213 26.1648 39.0044 26.493 38.3673C26.7142 37.9378 26.9339 37.7619 27.4984 37.5624C27.8957 37.4221 28.6851 36.9554 29.2524 36.5253C30.4913 35.5867 31.0723 34.5899 31.2244 33.1416C31.2945 32.4742 31.3546 32.295 31.4353 32.5118C31.4973 32.6785 31.8719 33.0739 32.2677 33.3904C32.6636 33.7068 33.0411 34.0492 33.1066 34.151C33.1722 34.2529 33.2867 34.3361 33.3612 34.3361C33.4357 34.3361 34.1864 34.8603 35.0296 35.5009C35.8727 36.1416 36.9312 36.888 37.3818 37.1599C38.3128 37.7212 39.7887 38.829 42.3737 40.9073C43.356 41.6967 44.3098 42.3816 44.4936 42.4293C44.7525 42.4964 45.017 42.3439 45.6677 41.7524C46.8807 40.6498 47.5286 40.3548 48.4672 40.4779C48.8834 40.5326 49.7115 40.7397 50.3072 40.9382C50.9029 41.1367 51.4849 41.2991 51.6006 41.2991C51.9507 41.2991 52.0158 40.7424 51.7566 39.9661C51.6216 39.5622 51.5537 39.1636 51.6054 39.0801C51.6596 38.993 52.3463 38.9287 53.225 38.9287C54.2129 38.9287 54.8135 38.8661 54.9293 38.751C55.0276 38.6532 55.108 38.1833 55.108 37.7065C55.108 37.2299 55.1996 36.66 55.3115 36.4399C55.6739 35.7276 55.7289 35.0018 55.4724 34.313C55.0183 33.0942 55.0103 33.1233 55.9544 32.5584C56.4311 32.2732 57.0765 31.8117 57.3889 31.5329L57.9567 31.0259L57.8731 29.6055C57.8271 28.8243 57.8541 27.9612 57.933 27.6875C58.0366 27.3284 58.0214 27.059 57.8784 26.7185C57.6141 26.0895 57.0927 25.9364 51.3095 24.791C50.3264 24.5963 49.4021 24.3895 49.2554 24.3314C49.1088 24.2733 48.7234 23.6873 48.3988 23.0289C47.9337 22.085 47.809 21.6633 47.809 21.0342C47.809 20.2595 47.8325 20.2144 48.6283 19.4661C49.4262 18.7155 49.4475 18.6745 49.4486 17.8862C49.4508 16.1807 49.6208 15.1052 49.8996 15.0326C50.3733 14.9095 50.6405 14.2558 50.8372 12.7404C50.9438 11.9192 51.1028 11.1589 51.1907 11.0509C51.4714 10.7056 51.5327 9.72487 51.4135 7.48147C51.3024 5.39376 51.2793 5.27569 50.9082 4.90665C50.6943 4.69391 50.1944 4.43998 49.7971 4.34235C49.1031 4.17169 49.0564 4.12606 48.5912 3.16887C48.2073 2.37924 48.002 2.12932 47.6004 1.96235C47.3217 1.84665 46.9362 1.54369 46.7438 1.28931C46.5513 1.0348 46.2263 0.645907 46.0215 0.425018L45.6491 0.0232406L43.2657 0.00442588C41.0241 -0.0132038 40.8379 0.00709247 40.1375 0.346056ZM19.0967 4.5508C19.8866 4.93776 20.2782 5.25761 20.9254 6.04428C21.6838 6.96635 21.7352 7.07554 21.5746 7.42621C21.4398 7.72058 21.4437 8.01095 21.5917 8.70487C21.697 9.19865 21.7538 9.63199 21.7179 9.66769C21.682 9.70339 21.3206 9.62991 20.9147 9.50443C19.5291 9.07569 17.4291 9.46324 17.1968 10.1907C17.0558 10.6326 17.6811 13.1124 18.1374 13.9206C18.3533 14.3031 18.4956 14.6504 18.4534 14.6921C18.4114 14.7339 17.9947 14.6798 17.5272 14.5717L16.6774 14.3752L15.9053 14.9481C14.1603 16.2431 14.1491 17.0816 15.8462 19.3744C16.5082 20.2687 16.9394 21.2351 16.7572 21.4161C16.7035 21.4696 16.479 21.4001 16.2582 21.2618C16.0376 21.1233 15.2538 20.7182 14.5164 20.3615C13.0201 19.6378 11.6405 18.6644 11.3622 18.1364C11.2614 17.9447 11.1051 17.1947 11.0151 16.4695C10.8094 14.8109 10.7369 14.5232 10.5026 14.4338C10.3103 14.3604 9.8242 15.1963 9.8242 15.6004C9.8242 15.9427 9.59093 15.8544 9.4013 15.4403C9.22732 15.0607 9.15895 13.5656 9.30865 13.4167C9.42127 13.3049 10.3962 13.8178 10.8155 14.2095C11.0077 14.389 11.1641 14.5077 11.1631 14.473C11.1622 14.4385 11.0624 14.0435 10.9414 13.5954C10.6624 12.5616 10.6623 11.8741 10.9405 10.4843C11.3938 8.22117 11.7001 7.30947 12.0346 7.22739C12.2064 7.18532 12.6693 6.75095 13.0633 6.26206C13.6601 5.52147 14.0152 5.25317 15.1908 4.65421C16.4414 4.01687 16.6865 3.9422 17.3467 3.99687C17.783 4.03287 18.5078 4.26235 19.0967 4.5508ZM47.0846 5.53613C47.1787 6.38295 47.4461 6.78058 47.9216 6.78058C48.0342 6.78058 48.3568 7.27687 48.6385 7.88339C48.9204 8.48991 49.2177 9.0271 49.2992 9.07732C49.3808 9.12739 49.4475 9.39465 49.4475 9.6711V10.1738L48.6717 9.77347C47.4023 9.11836 44.9489 9.15124 43.8283 9.83836C43.4669 10.06 42.8651 11.2529 42.5967 12.2794C42.5035 12.6366 42.2973 13.2812 42.1388 13.7121C41.6504 15.0394 41.7959 15.8176 42.5325 15.8176C42.9876 15.8176 43.1571 15.5582 43.4358 14.4351C43.6762 13.4659 43.827 13.3129 43.9774 13.8853C44.1012 14.3557 42.6728 16.8693 41.9474 17.4578C41.2416 18.0304 42.1945 20.5698 43.3318 21.1468C44.2968 21.6363 44.2515 21.7886 43.1611 21.7195L42.1968 21.6585L40.5947 20.3307C39.7136 19.6003 38.8248 18.8618 38.6196 18.6895C38.209 18.3444 37.5115 16.257 37.1899 14.4102C36.9647 13.1163 37.0322 8.32962 37.2818 7.89524C37.3766 7.73036 37.5217 7.30295 37.6042 6.94561C37.7496 6.31598 37.7819 6.28695 38.6479 6.01035C39.1395 5.85332 40.1785 5.56073 40.9568 5.36028C41.7351 5.15984 42.5891 4.88265 42.8546 4.74428C43.3099 4.5068 43.3619 4.50724 43.7789 4.75213C44.318 5.06902 44.9037 4.95821 45.2187 4.47998L45.4417 4.14161L46.2157 4.41213L46.9897 4.68265L47.0846 5.53613ZM13.833 9.93643C12.1788 10.6311 11.1939 11.1969 11.0939 11.5102C10.9739 11.8862 11.7695 13.5047 12.106 13.5692C12.6381 13.6711 14.451 12.9985 15.005 12.4936C15.5151 12.0287 15.5511 11.936 15.6074 10.9438C15.6669 9.89762 15.5198 9.43762 15.1313 9.4545C15.0388 9.4585 14.4546 9.67539 13.833 9.93643ZM38.1711 9.66991C37.7975 9.93021 37.5553 10.5907 37.4975 11.5071C37.4588 12.1189 37.484 12.1672 37.9006 12.2813C38.1562 12.3514 38.5815 12.3397 38.9018 12.2539C39.208 12.1718 39.8861 12.1483 40.4083 12.2016C41.3158 12.2941 41.3805 12.2785 41.8577 11.8545C42.3034 11.4584 42.3579 11.3255 42.3645 10.6209L42.3719 9.83125L41.7761 9.65065C40.8883 9.38161 38.5672 9.39391 38.1711 9.66991ZM49.6328 11.8176C49.5916 12.1028 49.4906 12.4028 49.4085 12.4843C49.3087 12.5832 49.2905 12.4664 49.3534 12.1324C49.4051 11.8575 49.4523 11.4241 49.458 11.1695C49.4667 10.7847 49.4886 10.7566 49.5883 11.0028C49.6541 11.1658 49.6742 11.5324 49.6328 11.8176ZM17.2151 17.5985C17.7367 17.703 18.1041 17.7032 18.3793 17.5992C19.2055 17.2868 19.4245 17.555 19.0357 18.4032C18.7268 19.0776 17.4156 18.8886 16.1995 17.9944C15.6022 17.5551 15.5243 17.2406 16.0412 17.3547C16.2676 17.4047 16.7958 17.5145 17.2151 17.5985ZM44.1852 18.2755C44.2442 18.4284 44.0829 18.7018 43.7258 19.0533C43.1939 19.5772 43.1683 19.5858 42.9599 19.3078C42.8413 19.1496 42.7443 18.7997 42.7443 18.5301C42.7443 18.0474 42.7546 18.0398 43.4193 18.0398C43.8991 18.0398 44.1206 18.108 44.1852 18.2755ZM13.4606 20.1865C14.0113 20.472 14.7759 20.9668 15.1595 21.2861C15.7264 21.7578 16.0178 21.8859 16.7155 21.9705C17.1877 22.0277 17.6045 22.1235 17.6418 22.1835C17.7014 22.2793 16.6384 24.7714 16.3287 25.2621C16.2645 25.364 15.9478 25.4473 15.6248 25.4473C14.7421 25.4473 12.3476 25.0058 11.8542 24.7521L11.4203 24.5289L11.5127 23.2347C11.5635 22.5228 11.5475 21.741 11.4772 21.4972C11.4069 21.2535 11.2999 20.4982 11.2395 19.819L11.1295 18.5838L11.7943 19.1256C12.16 19.4235 12.9098 19.901 13.4606 20.1865ZM39.9098 20.1339C40.4133 20.5524 41.011 21.0795 41.2379 21.3052C41.7073 21.772 42.5173 22.0378 43.4739 22.039L44.1291 22.0398L44.0418 23.3803C43.9622 24.6018 43.9143 24.7661 43.5012 25.2341C42.9597 25.8473 42.6682 26.3878 42.527 27.0398C42.4363 27.4588 42.3621 27.5213 41.9548 27.5213C41.5866 27.5213 41.3085 27.6969 40.6509 28.3441C39.6603 29.319 39.6259 29.3015 39.1753 27.592C39.004 26.9419 38.6587 25.8215 38.408 25.1019C38.1573 24.3822 37.9836 23.7622 38.022 23.724C38.0604 23.6858 38.3671 24.0747 38.7035 24.588C39.04 25.1013 39.3662 25.5692 39.4285 25.6277C40.2123 26.3635 40.5452 26.6324 40.6727 26.6324C40.8376 26.6324 40.8092 26.5755 40.181 25.648C39.9522 25.3102 39.7651 24.9718 39.7651 24.896C39.7651 24.8201 39.5912 24.5966 39.3786 24.399C38.8172 23.8773 38.597 23.3735 38.638 22.7041C38.6578 22.3795 38.6849 21.4973 38.6983 20.7435C38.7115 19.9898 38.7836 19.3732 38.8584 19.3732C38.933 19.3732 39.4063 19.7155 39.9098 20.1339ZM38.2755 22.2708C38.2755 22.5846 38.2152 22.761 38.1266 22.7065C37.8796 22.5547 37.9633 21.7435 38.2259 21.7435C38.2532 21.7435 38.2755 21.9809 38.2755 22.2708ZM48.281 24.0769C48.4121 24.3009 48.571 24.7176 48.6341 25.0028C48.7459 25.5083 48.7424 26.7907 48.6287 26.9035C48.5974 26.9347 48.3165 26.7004 48.0043 26.3833C47.692 26.0659 47.2711 25.7021 47.0688 25.5747L46.701 25.3431L46.9854 24.6915C47.1418 24.333 47.3322 23.9566 47.4086 23.8547C47.6398 23.5465 48.0287 23.6456 48.281 24.0769ZM26.1784 24.271C27.8387 24.4513 28.9696 24.7453 29.3627 25.0991C29.5603 25.277 29.6359 25.5563 29.6359 26.1086C29.6359 27.0929 29.3867 27.4529 28.8026 27.3126C26.8354 26.8401 26.2077 26.7668 24.8692 26.853C24.0908 26.9031 23.2653 27.0173 23.0346 27.1067C22.4486 27.3336 22.1926 27.0341 22.0848 25.9947C22.0014 25.1907 22.0167 25.1434 22.5251 24.6378C23.0036 24.1619 23.1289 24.1139 23.8918 24.1139C24.3539 24.1139 25.3829 24.1846 26.1784 24.271ZM23.2756 25.177C23.1883 25.2849 23.0894 25.6198 23.0556 25.9215C23.0069 26.3573 23.0337 26.4372 23.1869 26.3108C23.2929 26.2233 23.3796 26.0265 23.3796 25.8736C23.3796 25.4764 23.674 25.528 23.6947 25.9287C23.7071 26.1658 23.7312 26.1896 23.7785 26.0114C23.8151 25.8735 23.7525 25.5852 23.6396 25.3708C23.4768 25.0618 23.4013 25.0216 23.2756 25.177ZM24.4245 25.4102C24.4258 25.6342 24.4868 25.9118 24.5601 26.027C24.6493 26.1673 24.6855 26.0329 24.6695 25.6204C24.6433 24.9446 24.4209 24.7536 24.4245 25.4102ZM25.0181 25.6695C25.0181 26.0633 25.0583 26.3455 25.1075 26.2966C25.1566 26.2477 25.1969 25.9655 25.1969 25.6695C25.1969 25.3735 25.1566 25.0912 25.1075 25.0424C25.0583 24.9935 25.0181 25.2757 25.0181 25.6695ZM25.5514 25.3788C25.4992 25.5856 25.5234 25.8689 25.6052 26.0084C25.721 26.2062 25.7549 26.1234 25.7584 25.6324C25.7635 24.9182 25.6902 24.8284 25.5514 25.3788ZM25.9119 25.6695C25.9119 26.0361 25.9768 26.3361 26.0562 26.3361C26.1355 26.3361 26.1593 26.2295 26.1089 26.099C26.0586 25.9686 26.111 25.8028 26.2253 25.7308C26.3979 25.6222 26.3987 25.5995 26.2296 25.5976C26.0997 25.5963 26.0543 25.4881 26.104 25.2991C26.1468 25.1361 26.1212 25.0028 26.0468 25.0028C25.9726 25.0028 25.9119 25.3028 25.9119 25.6695ZM27.2893 25.4438C27.062 25.8058 27.051 26.0398 27.2613 26.0398C27.348 26.0398 27.373 25.9658 27.3167 25.8751C27.2604 25.7846 27.2981 25.659 27.4006 25.596C27.5029 25.533 27.5616 25.4065 27.5309 25.3148C27.4995 25.2212 27.3934 25.2778 27.2893 25.4438ZM28.158 25.5336C28.1652 25.7062 28.2005 25.7413 28.248 25.6233C28.2911 25.5163 28.2857 25.3884 28.2362 25.3393C28.1868 25.2901 28.1516 25.3775 28.158 25.5336ZM28.6925 25.5461C28.4927 25.7446 28.6015 26.149 28.9283 26.4243L29.2635 26.7065L28.9968 26.392C28.7391 26.088 28.7403 26.0748 29.0341 25.9985C29.2113 25.9524 29.3308 25.8056 29.3207 25.6464C29.305 25.3982 29.2971 25.3969 29.2353 25.6324C29.1978 25.7751 29.0643 25.8917 28.9387 25.8917C28.7968 25.8917 28.7427 25.8075 28.796 25.6695C28.8881 25.4308 28.8517 25.3876 28.6925 25.5461ZM27.5622 25.9781C27.5693 26.1507 27.6046 26.1858 27.6522 26.0677C27.6952 25.9607 27.6899 25.8329 27.6404 25.7837C27.5909 25.7345 27.5558 25.8219 27.5622 25.9781ZM45.5567 28.0347C45.2047 29.2001 44.8763 29.5569 45.0404 28.5954C45.1527 27.9373 45.7651 26.5342 45.8411 26.7609C45.8701 26.8475 45.7422 27.4207 45.5567 28.0347ZM28.063 27.5853C28.5205 27.7865 28.9323 28.0486 28.9784 28.1676C29.0302 28.3021 28.7965 28.6274 28.3614 29.0262C27.1974 30.0933 27.1478 30.1157 26.5609 29.8373C25.9235 29.5351 24.782 29.5265 24.2167 29.8197C23.803 30.0344 23.7619 30.0228 23.0682 29.4966C22.6724 29.1964 22.3124 28.8567 22.2679 28.7416C22.1241 28.369 23.4084 27.5107 24.5316 27.2287C25.4352 27.0018 27.1243 27.1723 28.063 27.5853ZM42.3681 28.2547C42.6109 28.7216 42.6716 29.2991 42.4778 29.2991C42.4133 29.2991 42.0975 29.1658 41.7761 29.0028C41.4546 28.8398 41.1053 28.7065 40.9999 28.7065C40.6911 28.7065 40.7776 28.4554 41.2004 28.1247C41.7435 27.6997 42.1002 27.7395 42.3681 28.2547ZM29.907 29.7181C29.9485 29.9994 29.8845 30.0398 29.3968 30.0398H28.8391L29.1917 29.6667C29.5961 29.2384 29.8385 29.2558 29.907 29.7181ZM22.2735 30.1277C22.759 30.5019 23.1737 30.825 23.1953 30.8456C23.2169 30.8664 23.1272 31.1385 22.9961 31.4507C22.8347 31.8348 22.7882 32.2193 22.8518 32.6415C22.9415 33.2361 22.9167 33.2896 22.3166 33.8004C21.9705 34.0951 21.6071 34.3361 21.5091 34.3361C21.2336 34.3361 20.6734 32.8914 20.5888 31.963C20.5025 31.0181 20.8828 29.4473 21.1977 29.4473C21.3041 29.4473 21.7882 29.7535 22.2735 30.1277ZM30.1379 30.5213C30.3786 31.4147 30.1566 34.0379 29.7906 34.624C29.621 34.8958 29.1489 34.7003 28.4043 34.0501C27.8968 33.6071 27.8854 33.5741 28.0365 32.9825C28.1489 32.5416 28.1445 32.2407 28.0202 31.8991C27.9257 31.6391 27.8483 31.3259 27.8483 31.2033C27.8483 30.8662 28.4621 30.368 28.9655 30.2961C29.9283 30.1588 30.0462 30.1815 30.1379 30.5213ZM24.7868 30.645C24.7388 30.7222 24.6362 30.7464 24.5586 30.6987C24.481 30.651 24.4567 30.5489 24.5046 30.4717C24.5526 30.3945 24.6552 30.3704 24.7329 30.4181C24.8105 30.4658 24.8347 30.5679 24.7868 30.645ZM26.4487 31.333C26.2974 31.4837 26.1724 31.2569 26.2966 31.057C26.3905 30.9059 26.4256 30.9059 26.476 31.0564C26.5105 31.1594 26.4982 31.2838 26.4487 31.333ZM24.1243 31.225C24.1243 31.3065 24.0949 31.3732 24.0587 31.3732C24.0225 31.3732 23.9516 31.3065 23.9009 31.225C23.8503 31.1436 23.8799 31.0769 23.9666 31.0769C24.0533 31.0769 24.1243 31.1436 24.1243 31.225ZM27.2525 31.1422C27.2525 31.1782 27.1855 31.2487 27.1035 31.2991C27.0216 31.3495 26.9546 31.32 26.9546 31.2338C26.9546 31.1475 27.0216 31.0769 27.1035 31.0769C27.1855 31.0769 27.2525 31.1062 27.2525 31.1422ZM25.465 31.5213C25.465 31.6028 25.3309 31.6695 25.1671 31.6695C25.0032 31.6695 24.8692 31.6028 24.8692 31.5213C24.8692 31.4398 25.0032 31.3732 25.1671 31.3732C25.3309 31.3732 25.465 31.4398 25.465 31.5213ZM26.0608 31.5301C26.0608 31.6163 26.1279 31.6458 26.2098 31.5954C26.2917 31.545 26.3587 31.5745 26.3587 31.6607C26.3587 31.8425 26.3187 31.8499 25.9986 31.7277C25.7386 31.6286 25.6762 31.3732 25.9119 31.3732C25.9938 31.3732 26.0608 31.4438 26.0608 31.5301ZM27.0291 31.8176C27.0797 31.8991 27.0501 31.9658 26.9634 31.9658C26.8767 31.9658 26.8056 31.8991 26.8056 31.8176C26.8056 31.7361 26.8351 31.6695 26.8713 31.6695C26.9075 31.6695 26.9784 31.7361 27.0291 31.8176ZM24.4223 31.883C24.4223 31.919 24.3552 31.9895 24.2733 32.0398C24.1914 32.0902 24.1243 32.0607 24.1243 31.9745C24.1243 31.8883 24.1914 31.8176 24.2733 31.8176C24.3552 31.8176 24.4223 31.847 24.4223 31.883ZM24.8692 31.9658C24.8692 32.0473 24.8021 32.1139 24.7202 32.1139C24.6383 32.1139 24.5712 32.0473 24.5712 31.9658C24.5712 31.8843 24.6383 31.8176 24.7202 31.8176C24.8021 31.8176 24.8692 31.8843 24.8692 31.9658ZM27.6185 31.9556C27.6657 32.0314 27.6361 32.1353 27.5528 32.1865C27.4695 32.2376 27.4015 32.1756 27.4015 32.0486C27.4015 31.7883 27.4908 31.7501 27.6185 31.9556ZM23.7519 32.1139C23.8026 32.1954 23.773 32.2621 23.6863 32.2621C23.5996 32.2621 23.5285 32.1954 23.5285 32.1139C23.5285 32.0324 23.558 31.9658 23.5942 31.9658C23.6304 31.9658 23.7013 32.0324 23.7519 32.1139ZM26.6567 32.1139C26.6567 32.1954 26.5896 32.2621 26.5077 32.2621C26.4258 32.2621 26.3587 32.1954 26.3587 32.1139C26.3587 32.0324 26.4258 31.9658 26.5077 31.9658C26.5896 31.9658 26.6567 32.0324 26.6567 32.1139ZM24.7202 32.4102C24.7202 32.4917 24.6532 32.5584 24.5712 32.5584C24.4893 32.5584 24.4223 32.4917 24.4223 32.4102C24.4223 32.3287 24.4893 32.2621 24.5712 32.2621C24.6532 32.2621 24.7202 32.3287 24.7202 32.4102ZM27.2525 32.4756C27.2525 32.5116 27.1855 32.5821 27.1035 32.6324C27.0216 32.6828 26.9546 32.6533 26.9546 32.5671C26.9546 32.4809 27.0216 32.4102 27.1035 32.4102C27.1855 32.4102 27.2525 32.4396 27.2525 32.4756ZM26.8056 32.6237C26.8056 32.6597 26.7386 32.7302 26.6567 32.7806C26.5747 32.831 26.5077 32.8015 26.5077 32.7153C26.5077 32.629 26.5747 32.5584 26.6567 32.5584C26.7386 32.5584 26.8056 32.5877 26.8056 32.6237ZM24.7909 33.0087C24.7454 33.0822 24.8784 33.1847 25.0865 33.2367C25.2947 33.2887 25.465 33.3907 25.465 33.4633C25.465 33.6579 25.2757 33.6249 24.9024 33.3647C24.5834 33.1427 24.4138 32.5923 24.7226 32.7821C24.8058 32.8333 24.8367 32.9353 24.7909 33.0087ZM26.9546 33.188C26.9546 33.2492 26.8245 33.2991 26.6655 33.2991C26.5064 33.2991 26.3452 33.2492 26.3074 33.188C26.2694 33.1268 26.3994 33.0769 26.5963 33.0769C26.7934 33.0769 26.9546 33.1268 26.9546 33.188ZM26.0608 33.4473C26.0608 33.5287 25.9898 33.5954 25.9031 33.5954C25.8164 33.5954 25.7867 33.5287 25.8374 33.4473C25.888 33.3658 25.9589 33.2991 25.9951 33.2991C26.0313 33.2991 26.0608 33.3658 26.0608 33.4473ZM26.6567 33.7436C26.6567 33.825 26.5896 33.8917 26.5077 33.8917C26.4258 33.8917 26.3587 33.825 26.3587 33.7436C26.3587 33.6621 26.4258 33.5954 26.5077 33.5954C26.5896 33.5954 26.6567 33.6621 26.6567 33.7436ZM27.1035 33.8264C27.1035 33.9533 27.0365 34.0161 26.9546 33.9658C26.8727 33.9154 26.8056 33.8116 26.8056 33.7348C26.8056 33.6581 26.8727 33.5954 26.9546 33.5954C27.0365 33.5954 27.1035 33.6994 27.1035 33.8264ZM24.3478 33.8917C24.3984 33.9732 24.3688 34.0398 24.2821 34.0398C24.1954 34.0398 24.1243 33.9732 24.1243 33.8917C24.1243 33.8102 24.1538 33.7436 24.19 33.7436C24.2262 33.7436 24.2971 33.8102 24.3478 33.8917ZM25.1671 33.8917C25.1671 33.9732 25.1 34.0398 25.0181 34.0398C24.9362 34.0398 24.8692 33.9732 24.8692 33.8917C24.8692 33.8102 24.9362 33.7436 25.0181 33.7436C25.1 33.7436 25.1671 33.8102 25.1671 33.8917ZM25.6884 33.8917C25.7391 33.9732 25.7094 34.0398 25.6227 34.0398C25.536 34.0398 25.465 33.9732 25.465 33.8917C25.465 33.8102 25.4945 33.7436 25.5307 33.7436C25.5669 33.7436 25.6378 33.8102 25.6884 33.8917ZM23.9745 34.6544C24.3049 34.983 24.4196 35.2129 24.3627 35.4321C24.289 35.7161 23.6816 36.1139 23.3219 36.1139C23.0979 36.1139 22.1901 35.4667 22.1889 35.3062C22.1874 35.0979 23.1101 34.188 23.3228 34.188C23.4233 34.188 23.7166 34.3979 23.9745 34.6544ZM25.316 34.419C25.316 34.5459 25.248 34.608 25.1647 34.5569C25.0814 34.5056 25.0518 34.4018 25.099 34.3259C25.2267 34.1204 25.316 34.1587 25.316 34.419ZM28.2212 34.9658C28.5832 35.2307 28.8815 35.5139 28.8842 35.5954C28.8869 35.6769 28.6591 35.8993 28.3782 36.0895C27.784 36.4918 27.6262 36.4384 26.965 35.6095C26.5302 35.0643 26.5178 35.015 26.7522 34.7576C27.1083 34.3661 27.4718 34.4176 28.2212 34.9658ZM26.4976 35.5071C26.6669 35.7439 26.8056 35.9681 26.8056 36.0055C26.8056 36.1612 25.4385 36.2447 25.084 36.1107C24.5346 35.903 24.6335 35.3351 25.2416 35.2065C26.0428 35.037 26.1854 35.0711 26.4976 35.5071ZM26.247 36.4641C26.8819 36.4532 27.4015 36.4898 27.4015 36.5455C27.4015 36.756 26.3364 37.0218 25.8709 36.9276C24.7659 36.704 24.2733 36.5378 24.2733 36.3884C24.2733 36.2834 24.4117 36.2729 24.6829 36.3572C24.9082 36.4271 25.6122 36.4753 26.247 36.4641ZM25.6561 40.5954C25.6233 40.6566 25.5334 40.7065 25.4562 40.7065C25.2903 40.7065 25.2669 40.064 25.427 39.9047C25.5471 39.7855 25.7549 40.412 25.6561 40.5954ZM26.6372 40.3127C26.8195 40.5311 26.7176 40.7065 26.4083 40.7065C26.2992 40.7065 26.2098 40.5732 26.2098 40.4102C26.2098 40.0684 26.3975 40.0256 26.6372 40.3127ZM24.5901 42.2284C24.4787 42.3393 24.4022 42.3084 24.331 42.1237C24.2702 41.9661 24.3126 41.8104 24.4378 41.7324C24.6953 41.5724 24.8251 41.9948 24.5901 42.2284ZM25.6139 41.8089C25.6139 41.9264 25.5469 42.0636 25.465 42.1139C25.3831 42.1643 25.316 42.0681 25.316 41.9004C25.316 41.7327 25.3831 41.5954 25.465 41.5954C25.5469 41.5954 25.6139 41.6914 25.6139 41.8089ZM25.6139 43.151C25.6139 43.2732 25.5134 43.3732 25.3905 43.3732C25.2676 43.3732 25.1671 43.2732 25.1671 43.151C25.1671 43.0287 25.2676 42.9287 25.3905 42.9287C25.5134 42.9287 25.6139 43.0287 25.6139 43.151ZM26.6567 43.0769C26.6567 43.1584 26.5561 43.225 26.4332 43.225C26.3103 43.225 26.2098 43.1584 26.2098 43.0769C26.2098 42.9954 26.3103 42.9287 26.4332 42.9287C26.5561 42.9287 26.6567 42.9954 26.6567 43.0769ZM27.9811 45.4102C28.7262 46.2047 29.3362 46.9665 29.3368 47.1031C29.3415 48.1218 25.5962 49.0437 24.1243 48.3862L23.603 48.1533L24.3079 48.2267C25.0793 48.307 25.3305 48.0816 25.0416 47.5684C24.9113 47.3369 24.974 47.2815 25.5134 47.1522C26.3334 46.9553 26.3671 46.6415 25.6953 45.4594C24.9485 44.1453 24.9864 44.001 26.083 43.9775C26.5841 43.9667 26.7328 44.079 27.9811 45.4102ZM29.6306 44.3299C29.7748 44.5027 29.7433 44.6656 29.4725 45.1447C29.2864 45.4741 29.0847 45.7436 29.0242 45.7436C28.8897 45.7436 27.8483 44.5487 27.8483 44.3944C27.8483 44.0908 29.3847 44.0353 29.6306 44.3299Z" fill="white"/>
</svg>
