<svg width="56" height="56" viewBox="0 0 56 56" fill="none" xmlns="http://www.w3.org/2000/svg">
<path fill-rule="evenodd" clip-rule="evenodd" d="M52.0051 27.7501C52.0051 41.1457 41.1457 52.0051 27.7501 52.0051C14.3545 52.0051 3.49512 41.1457 3.49512 27.7501C3.49512 14.3545 14.3545 3.49512 27.7501 3.49512C41.1457 3.49512 52.0051 14.3545 52.0051 27.7501ZM45.69 36.7478C42.3915 43.3117 35.5968 47.8156 27.7501 47.8156C16.6682 47.8156 7.68462 38.832 7.68462 27.7501C7.68462 16.6682 16.6682 7.68462 27.7501 7.68462C32.9473 7.68462 37.683 9.66047 41.2469 12.902C38.5906 13.8656 36.5701 16.5964 36.5701 19.4814C36.5701 21.3051 37.4343 23.408 38.7553 25.0369C39.6265 26.1111 40.3596 26.8575 41.0176 27.5274C41.8129 28.3373 42.4983 29.0352 43.1851 30.0654C43.7256 30.8761 43.9507 31.2065 44.1423 31.5551C44.3416 31.9176 44.5048 32.2999 44.9491 33.2626C45.2554 33.9259 45.4296 35.0912 45.5568 35.941C45.6069 36.2753 45.6494 36.5606 45.69 36.7478Z" fill="white"/>
</svg>
