<svg width="26" height="24" viewBox="0 0 26 24" fill="none" xmlns="http://www.w3.org/2000/svg">
<path d="M12.9645 0C6.09249 0 0.52002 5.5085 0.52002 12.3038C0.52002 17.74 4.08574 22.3519 9.03035 23.9789C9.65226 24.0927 9.88064 23.712 9.88064 23.387C9.88064 23.0936 9.86903 22.1243 9.86376 21.0962C6.40159 21.8405 5.67106 19.6445 5.67106 19.6445C5.10498 18.2224 4.28933 17.8443 4.28933 17.8443C3.1603 17.0806 4.37444 17.0963 4.37444 17.0963C5.62411 17.1831 6.28213 18.3642 6.28213 18.3642C7.39204 20.2452 9.19335 19.7014 9.90348 19.3871C10.0151 18.5918 10.3377 18.0491 10.6936 17.7418C7.92952 17.4306 5.02377 16.3756 5.02377 11.6612C5.02377 10.318 5.50992 9.22033 6.30604 8.35871C6.17682 8.04876 5.75089 6.7974 6.42658 5.10263C6.42658 5.10263 7.47158 4.77194 9.8497 6.36384C10.8423 6.09114 11.9069 5.9545 12.9645 5.94987C14.0221 5.9545 15.0875 6.09114 16.0821 6.36384C18.4573 4.77194 19.5009 5.10263 19.5009 5.10263C20.1782 6.7974 19.7521 8.04876 19.6229 8.35871C20.4208 9.22033 20.9036 10.3179 20.9036 11.6612C20.9036 16.3868 17.9924 17.4274 15.2213 17.732C15.6676 18.1138 16.0654 18.8626 16.0654 20.0105C16.0654 21.6567 16.0509 22.9817 16.0509 23.387C16.0509 23.7144 16.2749 24.098 16.9058 23.9772C21.8477 22.3485 25.4089 17.7382 25.4089 12.3038C25.4089 5.5085 19.8372 0 12.9645 0Z" fill="#898989"/>
<path d="M5.1809 17.527C5.15357 17.5881 5.05617 17.6064 4.96765 17.5646C4.87737 17.5244 4.82661 17.441 4.8559 17.3797C4.88273 17.3168 4.98014 17.2992 5.07022 17.3415C5.1607 17.3815 5.21223 17.4657 5.1809 17.527ZM5.79305 18.067C5.73371 18.1214 5.61766 18.0962 5.5389 18.0102C5.4575 17.9244 5.44228 17.8098 5.5025 17.7545C5.56369 17.7001 5.67622 17.7255 5.75782 17.8114C5.83922 17.8982 5.85512 18.012 5.79305 18.067ZM6.21302 18.7579C6.1367 18.8103 6.01197 18.7612 5.93496 18.6518C5.85874 18.5425 5.85874 18.4112 5.93662 18.3586C6.01392 18.306 6.1367 18.3533 6.21478 18.4619C6.29091 18.5731 6.29101 18.7043 6.21302 18.7579ZM6.92316 19.5582C6.85494 19.6325 6.70971 19.6126 6.60333 19.5111C6.4946 19.4119 6.46425 19.2711 6.53266 19.1967C6.60167 19.1222 6.74777 19.1431 6.85494 19.2438C6.96298 19.3428 6.99587 19.4846 6.92316 19.5582ZM7.84099 19.8284C7.81103 19.9247 7.67107 19.9685 7.53014 19.9276C7.3894 19.8854 7.29726 19.7725 7.32566 19.6751C7.35494 19.5782 7.49549 19.5325 7.6375 19.5763C7.77804 19.6183 7.87027 19.7303 7.84099 19.8284ZM8.8857 19.9429C8.88922 20.0444 8.76966 20.1286 8.6217 20.1304C8.47286 20.1336 8.35252 20.0515 8.35095 19.9517C8.35095 19.8492 8.46778 19.7658 8.61652 19.7634C8.76448 19.7605 8.8857 19.8421 8.8857 19.9429ZM9.91187 19.904C9.92963 20.003 9.82676 20.1047 9.67987 20.1318C9.53543 20.1578 9.40172 20.0967 9.38327 19.9986C9.36531 19.8971 9.47013 19.7955 9.61429 19.7691C9.76147 19.7438 9.89313 19.8034 9.91187 19.904Z" fill="#898989"/>
</svg>
