<svg width="56" height="56" viewBox="0 0 56 56" fill="none" xmlns="http://www.w3.org/2000/svg">
<path d="M5.13675 44.8233C4.42622 44.8233 3.85547 44.1966 3.85547 43.4163V27.4666C3.85547 17.8993 10.9491 10.1099 19.6618 10.1099C22.1079 10.1099 24.4375 10.7238 26.5108 11.8238C28.1182 12.6808 29.5742 13.8191 30.8206 15.1877C33.686 18.3342 35.4681 22.6829 35.4681 27.4666C35.4681 33.2991 32.824 38.6966 28.3978 41.9326C27.8037 42.3675 27.0117 42.1885 26.6156 41.5361C26.2196 40.8838 26.3827 40.0141 26.9767 39.5792C30.6808 36.8676 32.8939 32.3398 32.8939 27.4666C32.8939 23.1306 31.1584 19.2423 28.4094 16.5691C27.1747 15.3668 25.742 14.4203 24.1696 13.7935C22.7602 13.2307 21.2343 12.9238 19.6501 12.9238C12.3469 12.9238 6.40638 19.4469 6.40638 27.4666V43.4163C6.41803 44.1966 5.83563 44.8233 5.13675 44.8233Z" fill="#66B245"/>
<path d="M50.2398 44.8233C49.5293 44.8233 48.9585 44.1966 48.9585 43.4163V27.4666C48.9585 19.4469 43.0181 12.9238 35.7148 12.9238C28.4115 12.9238 22.471 19.4469 22.471 27.4666C22.471 32.3526 24.6841 36.8804 28.3882 39.5792C28.9822 40.0141 29.1337 40.8838 28.7493 41.5361C28.3533 42.1885 27.5612 42.3675 26.9671 41.9326C22.5409 38.7094 19.8968 33.2991 19.8968 27.4666C19.8968 17.8993 26.9904 10.1099 35.7031 10.1099C44.4158 10.1099 51.5095 17.8993 51.5095 27.4666V43.4163C51.5211 44.1966 50.9504 44.8233 50.2398 44.8233Z" fill="#66B245"/>
</svg>
