<svg width="56" height="56" viewBox="0 0 56 56" fill="none" xmlns="http://www.w3.org/2000/svg">
<path d="M36.7123 36.2032L36.7123 41.5439C36.7123 42.1392 37.1956 42.6218 37.7918 42.6218H47.8998L29.0353 52.8117C28.0784 53.3285 26.9257 53.3312 25.9665 52.8188L6.87842 42.6217L25.8938 31.8324C26.8908 31.2667 28.1131 31.2696 29.1074 31.84L36.7123 36.2032Z" fill="#00D1FF"/>
<path d="M7.82696 20.6639C7.21962 21.2703 6.87842 22.0927 6.87842 22.9503V42.6218L18.0661 36.2739V26.7294C18.0661 26.4412 18.1817 26.1649 18.3872 25.9624L26.6308 17.8371C27.0512 17.4227 27.7271 17.4227 28.1475 17.8371L36.3911 25.9624C36.5966 26.1649 36.7122 26.4412 36.7122 26.7294L36.7123 41.544C36.7123 42.1393 37.1956 42.6218 37.7918 42.6218H47.9L47.8999 22.9503C47.8999 22.0927 47.5587 21.2703 46.9513 20.6639L28.9158 2.65629C28.0727 1.81444 26.7056 1.81444 25.8625 2.65629L7.82696 20.6639Z" fill="#2895FA"/>
</svg>
