<svg width="24" height="24" viewBox="0 0 24 24" fill="none" xmlns="http://www.w3.org/2000/svg">
<path d="M7.54774 22.5714C16.6048 22.5714 21.5577 14.6578 21.5577 7.7954C21.5577 7.57065 21.5534 7.34692 21.5438 7.12412C22.5053 6.3911 23.3409 5.47631 24 4.43495C23.1177 4.84861 22.1683 5.12703 21.1723 5.25257C22.1889 4.60967 22.9694 3.59261 23.3376 2.38019C22.3862 2.97502 21.3327 3.40736 20.2109 3.64077C19.3123 2.63135 18.0331 2 16.6166 2C13.8974 2 11.6923 4.32572 11.6923 7.1925C11.6923 7.60004 11.7356 7.99637 11.8201 8.37664C7.72765 8.15945 4.09879 6.09297 1.67015 2.95072C1.24726 3.71815 1.00339 4.60967 1.00339 5.5609C1.00339 7.36263 1.8727 8.95321 3.19461 9.88372C2.38676 9.85738 1.62787 9.62346 0.964577 9.23419C0.963852 9.25602 0.963849 9.27725 0.963849 9.30053C0.963849 11.8156 2.66114 13.9154 4.91421 14.3913C4.5005 14.5102 4.06512 14.574 3.61582 14.574C3.29907 14.574 2.99037 14.5411 2.69038 14.4804C3.31727 16.5438 5.13505 18.0454 7.29018 18.0873C5.60489 19.4805 3.48189 20.3103 1.17453 20.3103C0.777572 20.3103 0.385445 20.2864 0 20.2383C2.17922 21.7115 4.76683 22.5711 7.54798 22.5711" fill="#898989"/>
</svg>
