<svg width="50" height="50" viewBox="0 0 50 50" fill="none" xmlns="http://www.w3.org/2000/svg">
<rect width="50" height="50" fill="black"/>
<ellipse cx="18.5455" cy="20.1818" rx="10.5455" ry="10.5455" fill="url(#paint0_linear)"/>
<path d="M41.9998 33.7895C41.9998 37.4861 38.9859 40.4828 35.2679 40.4828C31.55 40.4828 28.536 37.4861 28.536 33.7895C28.536 30.093 31.55 27.0963 35.2679 27.0963C38.9859 27.0963 41.9998 30.093 41.9998 33.7895Z" fill="white"/>
<path d="M26.9583 32.5868C26.9583 36.9477 23.4027 40.4828 19.0167 40.4828C14.6307 40.4828 11.0752 36.9477 11.0752 32.5868C11.0752 28.226 14.6307 24.6909 19.0167 24.6909C23.4027 24.6909 26.9583 28.226 26.9583 32.5868Z" fill="white"/>
<path d="M35.8991 26.8348C35.8991 31.1379 32.3906 34.6262 28.0627 34.6262C23.7348 34.6262 20.2264 31.1379 20.2264 26.8348C20.2264 22.5318 23.7348 19.0435 28.0627 19.0435C32.3906 19.0435 35.8991 22.5318 35.8991 26.8348Z" fill="white"/>
<path d="M18.9641 32.6391H35.2679V40.4828H18.9641V32.6391Z" fill="white"/>
<defs>
<linearGradient id="paint0_linear" x1="18.5455" y1="30.7273" x2="18.5455" y2="9.63635" gradientUnits="userSpaceOnUse">
<stop stop-color="#FFA800"/>
<stop offset="1" stop-color="#FFC700"/>
</linearGradient>
</defs>
</svg>
